<svg width="40" height="40" viewBox="0 0 40 40" fill="none" xmlns="http://www.w3.org/2000/svg">
<path d="M14.0474 31.36L8.07992 34.615C7.72974 34.806 7.41502 35.0407 7.12219 35.2965C10.6014 38.2301 15.0927 39.9999 19.9999 39.9999C24.8708 39.9999 29.3334 38.2565 32.8028 35.363C32.4828 35.0928 32.1357 34.8498 31.7507 34.6581L25.3606 31.4634C24.5349 31.0505 24.0134 30.2068 24.0134 29.2837V26.7766C24.1931 26.5721 24.3983 26.3094 24.618 25.9992C25.4889 24.769 26.1478 23.4158 26.6044 21.9962C27.424 21.7434 28.0277 20.9864 28.0277 20.0868V17.4106C28.0277 16.8219 27.7659 16.2959 27.3591 15.9276V12.0589C27.3591 12.0589 28.1538 6.03857 20.0006 6.03857C11.8475 6.03857 12.6422 12.0589 12.6422 12.0589V15.9276C12.2346 16.2959 11.9735 16.8219 11.9735 17.4106V20.0868C11.9735 20.7917 12.3441 21.4121 12.8988 21.7706C13.5674 24.6815 15.3184 26.7766 15.3184 26.7766V29.2219C15.3176 30.1124 14.8301 30.9328 14.0474 31.36Z" fill="#ECF0F1"/>
<path d="M20.3417 0.00297847C9.29803 -0.1857 0.191658 8.6135 0.00298019 19.658C-0.104189 25.9191 2.68674 31.547 7.13049 35.2903C7.42106 35.0368 7.73275 34.8043 8.07917 34.6156L14.0467 31.3606C14.8293 30.9334 15.3169 30.113 15.3169 29.2209V26.7757C15.3169 26.7757 13.5652 24.6806 12.8973 21.7697C12.3433 21.4112 11.972 20.7916 11.972 20.0859V17.4097C11.972 16.821 12.2339 16.295 12.6407 15.9267V12.058C12.6407 12.058 11.8459 6.03766 19.9991 6.03766C28.1523 6.03766 27.3576 12.058 27.3576 12.058V15.9267C27.7651 16.295 28.0262 16.821 28.0262 17.4097V20.0859C28.0262 20.9855 27.4225 21.7425 26.6028 21.9953C26.1462 23.4149 25.4874 24.7681 24.6164 25.9983C24.3968 26.3085 24.1915 26.5711 24.0119 26.7757V29.2828C24.0119 30.2058 24.5334 31.0504 25.3591 31.4624L31.7492 34.6571C32.1326 34.8488 32.479 35.0911 32.7983 35.3605C37.1077 31.7666 39.8918 26.393 39.9952 20.3417C40.1854 9.29802 31.3862 0.191657 20.3417 0.00297847Z" fill="#556080"/>
</svg>
