<svg width="14" height="14" viewBox="0 0 14 14" fill="none" xmlns="http://www.w3.org/2000/svg">
<path d="M12.3804 3.23904C11.0328 2.56529 9.11738 2.80956 7.63477 3.43212C8.91839 4.23887 9.62495 5.29718 9.62495 6.4166C9.62702 6.69384 9.5904 6.97001 9.51616 7.23713C9.81367 6.84089 10.0426 6.39752 10.1933 5.92551C10.9046 3.7916 11.2437 3.7916 12.25 3.7916C12.3157 3.79161 12.3795 3.76943 12.431 3.72866C12.4825 3.68788 12.5188 3.6309 12.5339 3.56695C12.549 3.50299 12.542 3.43582 12.5142 3.3763C12.4863 3.31678 12.4392 3.26842 12.3804 3.23904Z" fill="#95B19E"/>
<path d="M7.40906 2.89445C7.85818 2.70647 8.32271 2.55765 8.79746 2.44965C8.35631 1.63648 7.82788 0.873796 7.22152 0.175092C7.19414 0.143148 7.16017 0.117506 7.12195 0.0999253C7.08372 0.0823448 7.04215 0.0732422 7.00007 0.0732422C6.958 0.0732422 6.91642 0.0823448 6.8782 0.0999253C6.83997 0.117506 6.80601 0.143148 6.77862 0.175092C6.17179 0.874341 5.64301 1.63767 5.20166 2.45155C5.81717 2.59122 6.41499 2.79976 6.98381 3.07324L7.40906 2.89445Z" fill="#95B19E"/>
<path d="M8.74346 9.68573C8.24291 9.85483 7.82712 10.2109 7.58306 10.6795V8.37571C8.26498 8.18846 9.0414 7.64837 9.0414 6.41688C9.0414 5.49477 8.41781 4.60125 7.28542 3.90169C5.76977 2.965 3.2688 2.41419 1.61928 3.23931C1.5605 3.26869 1.51336 3.31706 1.48551 3.37657C1.45765 3.43609 1.45071 3.50327 1.46581 3.56722C1.48091 3.63118 1.51716 3.68816 1.56869 3.72894C1.62022 3.76971 1.68402 3.79189 1.74973 3.79188C2.75598 3.79188 3.09511 3.79188 3.80634 5.92578C4.27841 7.3419 5.19395 8.20589 6.41676 8.41071V10.6795C6.27402 10.4044 6.07041 10.1654 5.82143 9.98072C5.57244 9.79607 5.28463 9.67062 4.97988 9.61392C4.67514 9.55721 4.36147 9.57074 4.06273 9.65347C3.764 9.73621 3.48806 9.88597 3.25589 10.0914C3.21741 10.1253 3.18855 10.1688 3.17224 10.2174C3.15593 10.2661 3.15274 10.3182 3.163 10.3684C3.23231 10.7088 3.3873 11.0258 3.61332 11.2896C3.83934 11.5533 4.1289 11.7551 4.45463 11.8757C4.78035 11.9963 5.13146 12.0318 5.47475 11.9789C5.81803 11.9259 6.14213 11.7863 6.41639 11.5732V14.0002H7.58306V11.5732C7.94264 11.8519 8.38462 12.0032 8.83956 12.0034C9.30999 12.0033 9.7659 11.8404 10.1299 11.5424C10.494 11.2444 10.7437 10.8297 10.8368 10.3686C10.8471 10.3183 10.8439 10.2662 10.8276 10.2176C10.8113 10.1689 10.7824 10.1254 10.7439 10.0915C10.475 9.85494 10.1488 9.69298 9.79782 9.62178C9.44682 9.55058 9.08328 9.57263 8.74346 9.68573V9.68573Z" fill="#95B19E"/>
</svg>
