<svg width="80" height="56" viewBox="0 0 80 56" fill="none" xmlns="http://www.w3.org/2000/svg">
<path d="M47.2269 38.132V17.8631C47.2269 16.8384 46.3934 16 45.3638 16H34.6361C33.6114 16 32.7729 16.8335 32.7729 17.8631V38.1369C32.7729 39.1616 33.6065 40 34.6361 40H45.3638C46.3885 39.9951 47.2269 39.1616 47.2269 38.132ZM33.9742 20.3195H46.0208V33.9596H33.9742V20.3195ZM34.6361 17.2012H45.3638C45.7266 17.2012 46.0257 17.4954 46.0257 17.8631V19.1183H33.9742V17.8631C33.9742 17.4954 34.2733 17.2012 34.6361 17.2012ZM33.9742 38.132V35.1559H46.0208V38.132C46.0208 38.4948 45.7266 38.7939 45.3589 38.7939H34.6361C34.2733 38.7939 33.9742 38.4997 33.9742 38.132Z" fill="#95B19E"/>
<path d="M41.2159 36.4257H38.7791C38.4457 36.4257 38.176 36.6953 38.176 37.0287C38.176 37.3621 38.4457 37.6318 38.7791 37.6318H41.2159C41.5493 37.6318 41.819 37.3621 41.819 37.0287C41.819 36.6953 41.5493 36.4257 41.2159 36.4257Z" fill="#95B19E"/>
</svg>
