<svg width="80" height="56" viewBox="0 0 80 56" fill="none" xmlns="http://www.w3.org/2000/svg">
<path d="M51 22.0398L51 34.1891C51 35.8631 49.6343 37.2288 47.9602 37.2288L38.1409 37.2288C36.4669 37.2288 35.1012 35.8631 35.1012 34.1891L35.1012 32.2213C35.1012 31.8884 35.3704 31.6192 35.7032 31.6192C36.0361 31.6192 36.3053 31.8884 36.3053 32.2213L36.3053 34.1891C36.3053 35.2023 37.1326 36.0296 38.1458 36.0296L47.9602 36.0296C48.9735 36.0296 49.8007 35.2023 49.8007 34.1891L49.8007 22.0398C49.8007 21.0265 48.9735 20.1993 47.9602 20.1993L38.1409 20.1993C37.1277 20.1993 36.3004 21.0265 36.3004 22.0398L36.3004 24.0075C36.3004 24.3404 36.0312 24.6096 35.6983 24.6096C35.3655 24.6096 35.0963 24.3404 35.0963 24.0075L35.0963 22.0398C35.0963 20.3657 36.462 19 38.136 19L47.9602 19C49.6343 19 51 20.3608 51 22.0398Z" fill="#95B19E"/>
<path d="M32.135 32.6423C32.0175 32.7597 31.8658 32.8185 31.7091 32.8185C31.5525 32.8185 31.4007 32.7597 31.2833 32.6423L27.1764 28.5354C26.9414 28.3004 26.9414 27.9235 27.1764 27.6885L31.2833 23.5817C31.5182 23.3467 31.8951 23.3467 32.1301 23.5817C32.365 23.8166 32.365 24.1935 32.1301 24.4285L29.0463 27.5123L40.2998 27.5123C40.6326 27.5123 40.9019 27.7816 40.9019 28.1144C40.9019 28.4473 40.6326 28.7165 40.2998 28.7165L29.0512 28.7165L32.135 31.8003C32.3699 32.0304 32.3699 32.4122 32.135 32.6423Z" fill="#95B19E"/>
</svg>
