<svg width="80" height="56" viewBox="0 0 80 56" fill="none" xmlns="http://www.w3.org/2000/svg">
<path d="M33.683 39H46.942C48.9759 39 50.625 37.241 50.625 35.0714V26.4286C50.625 25.9947 50.2952 25.6429 49.8884 25.6429C49.4816 25.6429 49.1518 25.9947 49.1518 26.4286V35.0714C49.1518 36.3732 48.1623 37.4286 46.942 37.4286H33.683C32.4627 37.4286 31.4732 36.3732 31.4732 35.0714V20.9286C31.4732 19.6265 32.4627 18.5714 33.683 18.5714H46.942C48.1623 18.5714 49.1518 19.6265 49.1518 20.9286V23.2857C49.1518 23.7196 49.4816 24.0714 49.8884 24.0714C50.2952 24.0714 50.625 23.7196 50.625 23.2857V20.9286C50.625 18.7586 48.9759 17 46.942 17H33.683C31.6491 17 30 18.7586 30 20.9286V35.0714C30 37.241 31.6491 39 33.683 39Z" fill="#95B19E"/>
<path d="M36.1878 29.3742C35.8079 29.3742 35.5 29.6821 35.5 30.0619V32.8124C35.4997 33.0498 35.6219 33.2707 35.8234 33.3966C35.9325 33.4644 36.0591 33.5003 36.1878 33.5C36.2955 33.4993 36.4013 33.4735 36.4974 33.4241L46.1259 28.6107C46.3556 28.4932 46.5 28.2569 46.5 27.999C46.5 27.7408 46.3556 27.5044 46.1259 27.3869L36.4974 22.5735C36.2845 22.4664 36.0313 22.4768 35.8281 22.6014C35.6249 22.7263 35.5007 22.9472 35.5 23.1856V27.3114C35.5 27.6911 35.8079 27.999 36.1878 27.999C36.5676 27.999 36.8755 27.6911 36.8755 27.3114V24.2993L44.2756 27.999L36.8755 31.6983V30.0619C36.8755 29.6821 36.5676 29.3742 36.1878 29.3742Z" fill="#95B19E"/>
</svg>
