<svg width="25" height="27" viewBox="0 0 25 27" fill="none" xmlns="http://www.w3.org/2000/svg">
<path fill-rule="evenodd" clip-rule="evenodd" d="M22.0835 22.6179C19.4157 21.4661 19.3143 16.5221 19.3123 16.3974V13.0806C19.3123 9.88835 17.2719 7.14335 14.3725 5.97456C14.3662 4.33334 12.9681 3 11.2501 3C9.53208 3 8.13394 4.33342 8.12766 5.97449C5.22834 7.14328 3.18792 9.88827 3.18792 13.0805V16.3973C3.18603 16.5221 3.08447 21.466 0.416623 22.6178C0.112711 22.7491 -0.0543188 23.0654 0.0159471 23.377C0.086131 23.6888 0.374455 23.9114 0.707982 23.9114H7.47123C7.60988 24.6406 7.97052 25.3189 8.5221 25.8684C9.2547 26.5981 10.2235 27 11.25 27C12.2765 27 13.2453 26.5981 13.9778 25.8684C14.5295 25.3189 14.8901 24.6405 15.0287 23.9114H21.7919C22.1255 23.9114 22.4137 23.6888 22.484 23.377C22.5544 23.0654 22.3874 22.7491 22.0835 22.6179ZM18.5693 20.2495C18.8497 21.0623 19.2469 21.8786 19.81 22.5579H2.69019C3.25322 21.8787 3.65032 21.0624 3.93077 20.2495H18.5693ZM12.8898 5.53321C12.6842 4.85273 12.0271 4.35352 11.25 4.35352C10.473 4.35352 9.81592 4.85277 9.61029 5.53321C10.1399 5.42815 10.6884 5.37281 11.25 5.37281C11.8117 5.37281 12.3601 5.42819 12.8898 5.53321ZM4.6038 16.4015V13.0805C4.6038 9.57682 7.58533 6.72638 11.2502 6.72638C14.9151 6.72638 17.8966 9.57682 17.8966 13.0805V16.407C17.8975 16.5088 17.9141 17.5787 18.1961 18.8959H4.30408C4.58629 17.5775 4.60294 16.5057 4.6038 16.4015ZM8.92383 23.9115C9.22651 24.9018 10.1695 25.6466 11.25 25.6466C12.3306 25.6466 13.2734 24.9018 13.5761 23.9115H8.92383Z" fill="#BFC5D2"/>
<path d="M24 6C24 8.76142 21.7614 11 19 11C16.2386 11 14 8.76142 14 6C14 3.23858 16.2386 1 19 1C21.7614 1 24 3.23858 24 6Z" fill="#95B19E" stroke="white" stroke-width="2"/>
</svg>
