<svg width="80" height="56" viewBox="0 0 80 56" fill="none" xmlns="http://www.w3.org/2000/svg">
<path fill-rule="evenodd" clip-rule="evenodd" d="M28.9897 16C28.4431 16 28 16.4431 28 16.9897V25.4021C28 25.9487 28.4431 26.3918 28.9897 26.3918H37.4021C37.9487 26.3918 38.3918 25.9487 38.3918 25.4021V16.9897C38.3918 16.4431 37.9487 16 37.4021 16H28.9897ZM29.7938 17.7938H36.5979V24.5979H29.7938V17.7938Z" fill="#95B19E"/>
<path fill-rule="evenodd" clip-rule="evenodd" d="M28.9897 29.6082C28.4431 29.6082 28 30.0513 28 30.5979V39.0103C28 39.5569 28.4431 40 28.9897 40H37.4021C37.9487 40 38.3918 39.5569 38.3918 39.0103V30.5979C38.3918 30.0513 37.9487 29.6082 37.4021 29.6082H28.9897ZM36.5979 31.4021H29.7938V38.2062H36.5979V31.4021Z" fill="#95B19E"/>
<path fill-rule="evenodd" clip-rule="evenodd" d="M41.6082 16.9897C41.6082 16.4431 42.0513 16 42.5979 16H51.0103C51.5569 16 52 16.4431 52 16.9897V25.4021C52 25.9487 51.5569 26.3918 51.0103 26.3918H42.5979C42.0513 26.3918 41.6082 25.9487 41.6082 25.4021V16.9897ZM50.2062 17.7938H43.4021V24.5979H50.2062V17.7938Z" fill="#95B19E"/>
<path fill-rule="evenodd" clip-rule="evenodd" d="M42.5979 29.6082C42.0513 29.6082 41.6082 30.0513 41.6082 30.5979V39.0103C41.6082 39.5569 42.0513 40 42.5979 40H51.0103C51.5569 40 52 39.5569 52 39.0103V30.5979C52 30.0513 51.5569 29.6082 51.0103 29.6082H42.5979ZM43.4021 31.4021H50.2062V38.2062H43.4021V31.4021Z" fill="#95B19E"/>
</svg>
