<svg width="29" height="35" viewBox="0 0 29 35" fill="none" xmlns="http://www.w3.org/2000/svg">
<path d="M7.44801 22.1643C7.44801 21.5922 7.05102 21.251 6.35058 21.251C6.06456 21.251 5.87085 21.2792 5.76953 21.3062V23.1418C5.8895 23.1688 6.03698 23.1778 6.24026 23.1778C6.98686 23.1778 7.44801 22.8006 7.44801 22.1643Z" fill="#8798AD"/>
<path d="M11.7842 21.27C11.4706 21.27 11.2678 21.2971 11.1479 21.3252V25.3905C11.2679 25.4187 11.4616 25.4187 11.6368 25.4187C12.9092 25.4277 13.7392 24.7272 13.7392 23.243C13.7482 21.9524 12.9919 21.27 11.7842 21.27Z" fill="#8798AD"/>
<path d="M19.8407 0H6.00414C3.98275 0 2.33756 1.64633 2.33756 3.66657V17.2249H1.97944C1.1636 17.2249 0.501953 17.8859 0.501953 18.7025V27.6629C0.501953 28.4794 1.16353 29.1403 1.97944 29.1403H2.33756V30.7834C2.33756 32.8058 3.98275 34.4499 6.00414 34.4499H24.8835C26.9036 34.4499 28.549 32.8057 28.549 30.7834V8.67781L19.8407 0ZM4.37802 20.3195C4.81103 20.2464 5.41966 20.1912 6.27715 20.1912C7.14373 20.1912 7.76136 20.3566 8.17636 20.6889C8.57277 21.002 8.84029 21.5188 8.84029 22.127C8.84029 22.735 8.63758 23.252 8.26874 23.6022C7.78901 24.0538 7.07956 24.2565 6.24965 24.2565C6.06494 24.2565 5.89939 24.2473 5.76991 24.2294V26.4513H4.37802V20.3195ZM24.8835 32.2045H6.00414C5.22145 32.2045 4.58409 31.5671 4.58409 30.7834V29.1403H22.1835C22.9995 29.1403 23.6611 28.4794 23.6611 27.6629V18.7025C23.6611 17.8859 22.9995 17.2249 22.1835 17.2249H4.58409V3.66657C4.58409 2.88503 5.22152 2.24767 6.00414 2.24767L19.0006 2.2341V7.03805C19.0006 8.44123 20.1391 9.58082 21.5434 9.58082L26.2494 9.56732L26.3023 30.7833C26.3023 31.5671 25.6661 32.2045 24.8835 32.2045ZM9.7378 26.4231V20.3195C10.254 20.2374 10.9269 20.1912 11.637 20.1912C12.8171 20.1912 13.5824 20.4029 14.182 20.8544C14.8273 21.3341 15.2326 22.0988 15.2326 23.1967C15.2326 24.3859 14.7996 25.2069 14.1999 25.7135C13.5456 26.2574 12.5497 26.5154 11.3329 26.5154C10.6042 26.5154 10.088 26.4692 9.7378 26.4231ZM19.8002 22.8094V23.9524H17.5688V26.4513H16.1583V20.2374H19.9567V21.3893H17.5688V22.8094H19.8002Z" fill="#8798AD"/>
</svg>
