<svg width="37" height="37" viewBox="0 0 37 37" fill="none" xmlns="http://www.w3.org/2000/svg">
<g clip-path="url(#clip0)">
<path d="M34.6389 13.8779L33.7823 13.6934C33.7828 13.7697 33.7868 13.8448 33.7784 13.9211L33.7368 14.2813L33.6706 14.8647L32.3069 26.7747C32.1987 27.7177 31.4111 28.4284 30.4737 28.4284C30.4052 28.4284 30.3362 28.4245 30.2661 28.4166L26.6007 27.9965L20.6757 27.3182L14.7524 26.6406L31.13 30.168C31.2568 30.1955 31.3864 30.2084 31.5148 30.2084C32.3787 30.2084 33.1388 29.5885 33.3223 28.7341L36.0458 16.0859C36.1507 15.6012 36.0632 15.1048 35.7995 14.6885C35.5342 14.27 35.1219 13.9811 34.6389 13.8779Z" fill="#8798AD"/>
<path d="M29.5108 27.2808C29.5815 27.2892 29.651 27.2926 29.7195 27.2926C29.8754 27.2926 30.0241 27.2668 30.1688 27.2303C30.5592 27.1305 30.9031 26.9094 31.1505 26.5992C31.3654 26.3316 31.5101 26.004 31.5516 25.6394L32.8059 14.678L32.8727 14.0946L32.9389 13.5112L32.9967 13.0114L33.0225 12.7847C33.0455 12.5789 33.0281 12.3758 32.9871 12.1789C32.9288 11.9046 32.8166 11.6443 32.6399 11.4182C32.3342 11.0266 31.896 10.7804 31.4057 10.7243L30.4398 10.6138V11.2022V11.6633V11.7901V12.2512V12.8397V12.9727V13.5701V14.1681V24.0468C30.4398 24.8153 29.8636 25.438 29.1529 25.438H23.6918H18.5544H14.7202H14.5216H13.4165L16.2012 25.7561L29.5108 27.2808Z" fill="#8798AD"/>
<path d="M26.7046 22.956L20.3191 23.5495L14.0199 24.1335L13.0595 24.2221L10.2721 24.4813L10.2238 24.4858L8.92684 24.6064L8.22395 24.672L8.15102 24.6787L7.72412 24.7186H8.25873H8.26995H9.05811H11.371H12.2512H17.3874H27.9073C28.9227 24.7186 29.7479 23.8827 29.7479 22.8556V14.0203V13.4228V12.8248V12.762V12.173V11.7124V11.584V11.1229V10.535V9.91621C29.7479 9.39338 29.533 8.92273 29.1903 8.58446C28.8576 8.25742 28.406 8.05322 27.9073 8.05322H26.6154L26.6642 8.57998L26.6698 8.63719L26.7242 9.22173L26.8145 10.1989L26.8695 10.7941L26.9127 11.2609L26.9245 11.3893L26.9671 11.8555L27.0025 12.2341L27.0221 12.4507L27.0586 12.8445L27.1152 13.4543L27.8574 21.4543C27.9286 22.2178 27.4125 22.8909 26.7046 22.956Z" fill="#8798AD"/>
<path d="M12.0237 17.31C11.976 17.315 11.9351 17.333 11.9003 17.3655C11.8498 17.4137 11.8285 17.485 11.8374 17.5803C11.8442 17.6566 11.8711 17.7178 11.9171 17.7627C11.9637 17.807 12.0175 17.8266 12.0815 17.8204C12.1437 17.8148 12.1903 17.7868 12.2223 17.7363C12.2537 17.6858 12.2649 17.6235 12.2582 17.5489C12.2509 17.4653 12.224 17.4036 12.1791 17.3632C12.1342 17.3217 12.0826 17.3049 12.0237 17.31Z" fill="#8798AD"/>
<path d="M11.6774 21.011C11.6258 21.025 11.5894 21.0413 11.568 21.0559C11.531 21.0817 11.5153 21.1182 11.5198 21.1658C11.5237 21.2079 11.5389 21.2371 11.5635 21.2528C11.5894 21.2691 11.6185 21.2764 11.6527 21.273C11.7072 21.2674 11.7543 21.2477 11.7969 21.2124C11.8401 21.1776 11.8581 21.1182 11.8513 21.0357L11.8429 20.9448C11.8289 20.9555 11.8132 20.965 11.7969 20.9729C11.7823 20.9802 11.7604 20.9875 11.733 20.9953L11.6774 21.011Z" fill="#8798AD"/>
<path d="M15.6151 17.2619C15.6084 17.189 15.5848 17.1357 15.5439 17.1015C15.5029 17.0672 15.4513 17.0532 15.3885 17.0588C15.3251 17.0644 15.2774 17.0885 15.2437 17.1295C15.2095 17.1705 15.1972 17.2277 15.2039 17.3006C15.2101 17.3707 15.2336 17.4234 15.274 17.4588C15.3144 17.4936 15.3666 17.5082 15.4305 17.5025C15.4951 17.4969 15.5433 17.4723 15.5758 17.4302C15.6089 17.3887 15.6218 17.332 15.6151 17.2619Z" fill="#8798AD"/>
<path d="M16.4546 16.3849C16.407 16.3899 16.3666 16.4068 16.3352 16.4371C16.2858 16.4842 16.265 16.5582 16.274 16.6587C16.2819 16.7434 16.3049 16.8056 16.3436 16.8443C16.3823 16.8836 16.4373 16.8999 16.5085 16.8926C16.5466 16.8892 16.5825 16.8746 16.6145 16.8488C16.6745 16.8023 16.6992 16.7288 16.6897 16.6278C16.6824 16.547 16.6572 16.4848 16.6151 16.4416C16.573 16.3984 16.5197 16.3787 16.4546 16.3849Z" fill="#8798AD"/>
<path d="M15.3676 16.8435C15.4248 16.8385 15.4674 16.8183 15.4955 16.7818C15.5235 16.7465 15.5353 16.7022 15.5308 16.6506C15.5252 16.5939 15.5056 16.5513 15.4708 16.5227C15.4366 16.4941 15.3906 16.4817 15.3334 16.4879C15.2767 16.4929 15.2341 16.5137 15.2055 16.5479C15.1763 16.5827 15.1651 16.6287 15.1701 16.6848C15.1746 16.737 15.1948 16.7779 15.2296 16.8076C15.2655 16.8368 15.3115 16.8491 15.3676 16.8435Z" fill="#8798AD"/>
<path d="M18.5183 20.0578C18.4763 20.0281 18.4258 20.0157 18.3674 20.0213C18.3052 20.0275 18.2575 20.0499 18.2255 20.0892C18.1941 20.1279 18.1773 20.179 18.1733 20.2412L18.598 20.2014C18.5873 20.1352 18.5615 20.0887 18.5183 20.0578Z" fill="#8798AD"/>
<path d="M21.8379 16.5614L22.1935 16.5283L22.1363 15.9141L21.8379 16.5614Z" fill="#8798AD"/>
<path d="M15.8064 20.6219C15.7548 20.636 15.7178 20.6517 15.6964 20.6662C15.66 20.6926 15.6437 20.7291 15.6482 20.7762C15.6527 20.8183 15.6667 20.848 15.6919 20.8637C15.7177 20.88 15.7469 20.8867 15.7817 20.8833C15.8356 20.8783 15.8832 20.8581 15.9259 20.8233C15.9691 20.788 15.9865 20.7291 15.9803 20.6466L15.9719 20.5552C15.9573 20.5664 15.9416 20.5759 15.9259 20.5832C15.9107 20.5911 15.8888 20.5978 15.8614 20.6062L15.8064 20.6219Z" fill="#8798AD"/>
<path d="M24.3559 16.1482C24.3077 16.1526 24.2667 16.1712 24.2331 16.2037C24.182 16.2514 24.1601 16.3226 24.1697 16.418C24.1775 16.4943 24.2044 16.5554 24.2499 16.6003C24.2959 16.6446 24.3503 16.6643 24.4137 16.6581C24.4759 16.6519 24.5231 16.6239 24.5545 16.5739C24.587 16.524 24.5977 16.4612 24.5909 16.386C24.5825 16.303 24.5562 16.2407 24.5113 16.2003C24.467 16.1599 24.4142 16.142 24.3559 16.1482Z" fill="#8798AD"/>
<path d="M9.80283 17.0762L9.50439 17.7247L9.77478 17.6989L9.86117 17.691L9.83537 17.4184L9.80283 17.0762Z" fill="#8798AD"/>
<path d="M8.63641 20.9383C8.57358 20.9451 8.52646 20.9675 8.49504 21.0062C8.46307 21.0455 8.4468 21.0965 8.44287 21.1582L8.86753 21.119C8.85631 21.0539 8.82994 21.0062 8.78787 20.9765C8.74467 20.9451 8.69419 20.9327 8.63641 20.9383Z" fill="#8798AD"/>
<path d="M6.19437 21.5008C6.17978 21.5086 6.15791 21.5154 6.13042 21.5232L6.07488 21.5389C6.02327 21.5529 5.98681 21.5681 5.96549 21.5832C5.92847 21.6096 5.91276 21.6461 5.91725 21.6926C5.92118 21.7347 5.93632 21.7639 5.96101 21.7807C5.98681 21.797 6.01598 21.8037 6.0502 21.8003C6.10405 21.7953 6.15174 21.7751 6.19437 21.7398C6.23756 21.705 6.25551 21.6461 6.24878 21.5636L6.24037 21.4722C6.22522 21.4834 6.21008 21.4929 6.19437 21.5008Z" fill="#8798AD"/>
<path d="M4.37571 18.4132C4.3931 18.3235 4.39422 18.1967 4.37964 18.0329C4.36337 17.8612 4.33868 17.7345 4.30503 17.6548C4.27081 17.5746 4.21247 17.5381 4.12888 17.546C4.0453 17.5533 3.99481 17.6004 3.97518 17.6856C3.95554 17.7709 3.95442 17.8994 3.97125 18.0716C3.98583 18.2354 4.01164 18.3599 4.04698 18.4441C4.08176 18.5277 4.14066 18.5669 4.22425 18.5591C4.30783 18.5507 4.35776 18.5019 4.37571 18.4132Z" fill="#8798AD"/>
<path d="M2.88535 24.5313C2.93696 24.5358 2.98633 24.5465 3.03906 24.5465C3.09516 24.5465 3.15125 24.5437 3.20791 24.5381L4.64344 24.4051L5.11634 24.3614L6.35552 24.2464L6.54738 24.229L7.1291 24.1746L7.38434 24.151L7.57451 24.1336L7.72205 24.1202L7.98851 24.096L8.57753 24.0411L9.18506 23.985L10.1741 23.893L13.8748 23.5502L25.359 22.4849C26.3699 22.3901 27.1143 21.4819 27.0189 20.4593L26.3542 13.29L26.2975 12.6803L26.2678 12.3639L26.2397 12.0705L26.2122 11.7687L26.1696 11.3025L26.1578 11.174L26.1146 10.7079L26.0597 10.1127L25.9777 9.22187L25.9228 8.63733L25.9177 8.57955L25.8684 8.0528L25.824 7.57429C25.7691 6.98191 25.4454 6.48488 24.9876 6.18364C24.6544 5.96486 24.2522 5.84762 23.8197 5.88913L1.6686 7.94509C0.658855 8.03934 -0.086676 8.94755 0.00812818 9.9702L1.20356 22.8535C1.2877 23.7662 1.99958 24.4573 2.88535 24.5313ZM4.138 11.9431C4.06227 12.0054 3.99159 12.075 3.92708 12.1524C3.88556 12.2023 3.85415 12.2573 3.81993 12.3111C3.70213 12.4957 3.62471 12.6993 3.59274 12.9136L3.19894 12.9512C3.26176 12.5737 3.49288 12.2517 3.81937 12.0677C3.9181 12.0121 4.02469 11.9701 4.138 11.9431ZM23.1903 8.63789C23.4001 8.80058 23.5774 8.9986 23.7243 9.22243C23.8562 9.42438 23.965 9.64203 24.0334 9.88157C24.0733 10.0229 24.1047 10.1693 24.1187 10.3208C24.1249 10.3741 24.1164 10.4263 24.1181 10.4796C24.1237 10.6344 24.1136 10.787 24.089 10.9373C24.0822 10.9788 24.0727 11.0203 24.0637 11.0613C24.0306 11.2144 23.9824 11.3625 23.9201 11.5061C23.9117 11.5252 23.9055 11.5448 23.8954 11.5645C23.8141 11.7384 23.7182 11.9044 23.5953 12.057C23.588 12.0666 23.583 12.0778 23.5757 12.0867C23.574 12.0884 23.5717 12.0901 23.5701 12.0918C23.4102 12.2842 23.2195 12.4385 23.0153 12.5697C22.6944 12.7762 22.3326 12.9136 21.9427 12.9506C21.8653 12.9585 21.789 12.9619 21.7132 12.9619C21.2869 12.9619 20.8909 12.8463 20.5425 12.6533C20.1521 13.0219 19.6601 13.2586 19.1165 13.3091C19.0397 13.3164 18.9634 13.3203 18.8865 13.3203C17.6731 13.3203 16.6718 12.4351 16.4996 11.2459C16.4956 11.2184 16.4878 11.1926 16.485 11.1645C16.4833 11.151 16.4788 11.1387 16.4771 11.1247C16.4625 10.9665 16.4642 10.8094 16.4794 10.6551C16.4822 10.6254 16.4912 10.5974 16.4945 10.5693C16.5119 10.4459 16.5332 10.3231 16.5686 10.2047C16.5809 10.1632 16.6011 10.1239 16.6151 10.083C16.6247 10.056 16.6376 10.0308 16.6482 10.0044C16.6976 9.88045 16.7548 9.7604 16.8249 9.6454C16.8855 9.54499 16.9467 9.44457 17.023 9.35257C17.0628 9.30489 17.111 9.2673 17.1531 9.22355C17.1912 9.18428 17.2288 9.14445 17.2698 9.10855C17.4964 8.90267 17.7561 8.7456 18.04 8.63902C18.0871 8.62163 18.1314 8.59638 18.1802 8.5818C18.3362 8.53468 18.4972 8.50102 18.6632 8.48531C18.9937 8.45333 19.3117 8.49036 19.6085 8.5818C19.6584 8.59694 19.7038 8.62106 19.7526 8.63902C19.866 8.68277 19.977 8.72653 20.0825 8.78599C20.1375 8.73494 20.1908 8.68502 20.2497 8.63902C20.2772 8.6177 20.3074 8.60199 20.3349 8.5818C20.6676 8.34675 21.0575 8.18463 21.4905 8.14424C22.0958 8.08646 22.6562 8.26148 23.1089 8.5818C23.1336 8.60031 23.1639 8.61714 23.1903 8.63789ZM4.74666 22.0749L4.49871 22.0984L4.40502 21.101L4.37922 20.8261L4.40502 20.8239L4.65746 20.7998L4.989 21.2721L5.08043 21.4034L5.24592 21.639L5.16234 20.7515L5.41029 20.7285L5.52977 22.0014L5.26387 22.0266L5.07931 21.7658L4.98787 21.6362L4.65971 21.1722L4.74666 22.0749ZM3.82049 18.5789C3.75205 18.4605 3.70381 18.3057 3.68418 18.0992C3.66174 17.8636 3.68137 17.6785 3.74252 17.5433C3.76047 17.5052 3.79413 17.4822 3.82105 17.4536C3.88893 17.3806 3.977 17.3273 4.10715 17.315C4.23224 17.3032 4.32537 17.3358 4.40502 17.3891C4.44093 17.4137 4.48132 17.4328 4.50824 17.471C4.59239 17.591 4.6468 17.7694 4.66868 18.005C4.69112 18.24 4.67205 18.4257 4.61034 18.5592C4.57051 18.6468 4.49478 18.7006 4.40502 18.7371C4.35678 18.7578 4.30966 18.7803 4.24627 18.7859C4.06451 18.8027 3.931 18.7511 3.8463 18.6316C3.83452 18.6176 3.82947 18.594 3.82049 18.5789ZM3.59049 13.3966L3.67632 14.3048C3.67688 14.3121 3.67913 14.3183 3.68025 14.325L3.28645 14.362L3.19837 13.4331L3.59049 13.3966ZM17.2703 19.9628C17.318 19.9325 17.3736 19.9134 17.4358 19.9078C17.4773 19.9039 17.5183 19.9078 17.5609 19.9202C17.6024 19.9319 17.6423 19.9566 17.6782 19.9942C17.7079 20.0245 17.7298 20.0632 17.7427 20.1098C17.7517 20.1412 17.7584 20.1872 17.7646 20.2483L17.8195 20.8424L17.5665 20.866L17.5099 20.2668C17.5065 20.2309 17.4981 20.2023 17.4841 20.1804C17.4583 20.1395 17.4156 20.121 17.3573 20.126C17.2894 20.1322 17.2451 20.1653 17.2243 20.2242C17.2137 20.2551 17.2114 20.2921 17.2148 20.3342L17.267 20.8946L17.0196 20.9187L16.9669 20.3583C16.9613 20.3016 16.9517 20.2623 16.9377 20.2382C16.9124 20.1945 16.8704 20.1754 16.8098 20.181C16.7397 20.1877 16.6942 20.2152 16.6752 20.2629C16.6634 20.2898 16.6611 20.3285 16.6656 20.3802L16.7189 20.9467L16.4698 20.9697L16.3812 20.0301L16.6196 20.0071L16.6325 20.1445C16.6578 20.0924 16.6836 20.0554 16.7088 20.0318C16.7531 19.9908 16.8132 19.9667 16.8889 19.9589C16.9607 19.9516 17.0207 19.9622 17.0678 19.9897C17.106 20.0161 17.1368 20.0509 17.1598 20.0952C17.189 20.0374 17.2249 19.9936 17.2703 19.9628ZM17.1694 16.3473C17.258 16.335 17.3186 16.3232 17.3534 16.3125C17.4089 16.2952 17.4527 16.2654 17.4841 16.225C17.506 16.197 17.5205 16.1616 17.5301 16.1173C17.5346 16.091 17.5362 16.0719 17.5351 16.0595L17.7696 16.0371L17.9037 17.4642L17.6159 17.4911L17.5228 16.5066L17.1879 16.5386L17.1694 16.3473ZM16.9786 17.26C16.9153 17.4878 16.7722 17.6123 16.5467 17.6336C16.4401 17.6437 16.3408 17.6213 16.2494 17.5658C16.1579 17.5102 16.1002 17.4227 16.076 17.3021L16.3554 17.2757C16.3666 17.3172 16.3874 17.3492 16.4182 17.3733C16.4491 17.3969 16.4889 17.4064 16.5372 17.402C16.6297 17.393 16.6892 17.3358 16.7172 17.2303C16.7324 17.172 16.7374 17.0884 16.7324 16.9795C16.7094 17.0143 16.6853 17.0412 16.6578 17.0614C16.6084 17.0973 16.545 17.1198 16.4687 17.1271C16.3548 17.1377 16.2505 17.108 16.1551 17.0379C16.0598 16.9678 16.0048 16.8589 15.9919 16.7108C15.9773 16.5577 16.0098 16.4298 16.0895 16.3271C16.1692 16.2234 16.2786 16.1656 16.4199 16.1521C16.6376 16.1319 16.7952 16.2133 16.8945 16.3989C16.9506 16.5038 16.9871 16.6446 17.0033 16.8225C17.0202 16.9947 17.0117 17.1411 16.9786 17.26ZM15.9044 20.273C15.8758 20.2612 15.8354 20.2567 15.7832 20.2623C15.7243 20.268 15.6839 20.2859 15.662 20.3173C15.6463 20.3398 15.6374 20.3701 15.6351 20.4065L15.3978 20.429C15.395 20.3459 15.4118 20.2764 15.4483 20.2192C15.5061 20.13 15.6144 20.0778 15.7737 20.0626C15.8769 20.0525 15.9711 20.0649 16.0547 20.098C16.1394 20.1311 16.1866 20.2034 16.1972 20.3184L16.2382 20.7504C16.241 20.7807 16.2449 20.816 16.2499 20.8587C16.2544 20.8918 16.2617 20.9125 16.2713 20.9232C16.2802 20.9338 16.2937 20.9422 16.3105 20.9484L16.3139 20.9838L16.0463 21.009C16.0362 20.9916 16.0306 20.9742 16.0256 20.9574C16.0205 20.9406 16.0171 20.9226 16.0132 20.9007C15.9824 20.9411 15.9465 20.9765 15.9044 21.0062C15.8545 21.0421 15.795 21.0634 15.7282 21.069C15.6424 21.0769 15.5689 21.0589 15.5089 21.0157C15.4489 20.9725 15.4147 20.9058 15.4051 20.816C15.3945 20.701 15.432 20.6124 15.5162 20.5524C15.5628 20.5193 15.634 20.4929 15.7288 20.471L15.8118 20.4536C15.8567 20.443 15.8887 20.4329 15.9083 20.4217C15.942 20.4043 15.9571 20.3785 15.9543 20.3471C15.9493 20.3106 15.933 20.2853 15.9044 20.273ZM14.6585 21.1408L14.4128 21.1644L14.3236 20.2242L14.562 20.2018L14.5743 20.3392C14.6012 20.2882 14.6287 20.2506 14.6545 20.2264C14.7011 20.1838 14.7634 20.1586 14.8408 20.1518C14.9378 20.1423 15.0192 20.1608 15.0859 20.2057C15.1527 20.2506 15.1914 20.333 15.2026 20.4503L15.2621 21.0847L15.0091 21.1083L14.9558 20.5361C14.9513 20.4862 14.9406 20.4486 14.9255 20.4233C14.8969 20.3773 14.8492 20.3583 14.7819 20.3644C14.6989 20.3723 14.6456 20.4133 14.6209 20.4867C14.6091 20.5249 14.6057 20.5737 14.6102 20.6326L14.6585 21.1408ZM15.0663 17.642C14.976 17.5652 14.9255 17.467 14.9143 17.347C14.907 17.2668 14.9176 17.1927 14.9485 17.1243C14.9782 17.0558 15.0265 17.002 15.0932 16.9627C15.0197 16.9234 14.9698 16.878 14.9434 16.8264C14.9176 16.7748 14.903 16.7254 14.8986 16.6789C14.8885 16.5756 14.9199 16.4831 14.9906 16.4029C15.0618 16.3221 15.1689 16.275 15.3126 16.2621C15.4545 16.2486 15.5689 16.275 15.6542 16.3406C15.7389 16.4057 15.7866 16.4915 15.7967 16.5947C15.8012 16.6413 15.795 16.6923 15.7793 16.7473C15.7636 16.8028 15.7232 16.8539 15.6581 16.8993C15.7322 16.9319 15.7899 16.9795 15.8326 17.0407C15.8752 17.1018 15.8993 17.1731 15.9061 17.2533C15.9167 17.3739 15.8825 17.4799 15.8012 17.5725C15.7193 17.6651 15.5992 17.7189 15.4399 17.7341C15.2806 17.7492 15.156 17.7183 15.0663 17.642ZM12.8364 21.0023C12.8123 20.9905 12.7237 20.9737 12.5716 20.9523C12.4628 20.9361 12.3837 20.9097 12.336 20.8744C12.2889 20.8396 12.2614 20.7852 12.2541 20.7117C12.2463 20.6247 12.2732 20.5468 12.3355 20.4778C12.3983 20.4088 12.4914 20.3684 12.616 20.3572C12.7332 20.3454 12.8314 20.3605 12.9105 20.3998C12.9896 20.4396 13.0389 20.5165 13.0614 20.6315L12.8157 20.6545C12.8095 20.6231 12.7983 20.5989 12.782 20.5821C12.7512 20.5512 12.704 20.5389 12.639 20.5451C12.5851 20.5512 12.5475 20.5625 12.5268 20.581C12.506 20.5995 12.4959 20.6202 12.4982 20.6427C12.501 20.6707 12.515 20.6898 12.5402 20.701C12.566 20.7122 12.653 20.7268 12.8039 20.7448C12.9043 20.7577 12.9806 20.7857 13.0339 20.8278C13.0866 20.8704 13.1158 20.9271 13.1236 20.9978C13.1321 21.0909 13.1046 21.1711 13.0406 21.2368C12.9772 21.3018 12.8718 21.3422 12.7265 21.3557C12.5778 21.3691 12.4662 21.3478 12.3899 21.2929C12.313 21.2368 12.2704 21.161 12.2609 21.064L12.5111 21.041C12.52 21.0836 12.5341 21.1139 12.5531 21.1302C12.5874 21.1605 12.6451 21.1711 12.7276 21.1644C12.7758 21.1593 12.8146 21.1487 12.842 21.1307C12.8695 21.1139 12.8819 21.0915 12.8791 21.0623C12.8751 21.0342 12.8611 21.0146 12.8364 21.0023ZM11.7762 20.6623C11.7476 20.6505 11.7078 20.6466 11.655 20.6517C11.5961 20.6578 11.5557 20.6758 11.5339 20.7066C11.5187 20.7296 11.5092 20.7594 11.5069 20.7964L11.2702 20.8183C11.268 20.7352 11.2837 20.6657 11.3207 20.6085C11.3779 20.5198 11.4862 20.4677 11.6455 20.4525C11.7487 20.4424 11.8429 20.4548 11.9271 20.4873C12.0112 20.521 12.0584 20.5933 12.069 20.7078L12.11 21.1403C12.1128 21.17 12.1167 21.2059 12.1223 21.2485C12.1268 21.2805 12.1341 21.3024 12.1431 21.3125C12.1526 21.3231 12.1655 21.3321 12.1823 21.3377L12.1857 21.3736L11.9181 21.3989C11.9091 21.3809 11.903 21.3635 11.8974 21.3467C11.8929 21.331 11.8889 21.3119 11.8856 21.2906C11.8547 21.331 11.8183 21.3658 11.7762 21.3961C11.7263 21.4314 11.6674 21.4533 11.6 21.4583C11.5142 21.4668 11.4413 21.4482 11.3807 21.405C11.3207 21.3619 11.2859 21.2951 11.2775 21.2059C11.2657 21.0903 11.3033 21.0023 11.388 20.9417C11.4346 20.9086 11.5052 20.8822 11.6 20.8603L11.6836 20.843C11.7285 20.8323 11.7605 20.8228 11.7801 20.8115C11.8138 20.7941 11.8295 20.7683 11.8261 20.7364C11.8211 20.6999 11.8048 20.6741 11.7762 20.6623ZM9.11214 21.0701C9.1228 21.1128 9.13177 21.1745 9.13794 21.2553L9.00723 21.2676L8.45243 21.3198C8.46478 21.414 8.50461 21.4769 8.56968 21.5094C8.60895 21.529 8.65607 21.5369 8.70824 21.5318C8.7649 21.5268 8.80921 21.5083 8.84119 21.4757C8.85858 21.4583 8.87372 21.4353 8.88551 21.4062L8.97806 21.3972L9.13682 21.3826C9.1357 21.4393 9.11045 21.4982 9.06165 21.561C9.0235 21.6109 8.97526 21.6502 8.91804 21.6782C8.86138 21.7063 8.79575 21.7242 8.72058 21.7315C8.59548 21.7433 8.48104 21.7153 8.37839 21.6474C8.36156 21.6356 8.35258 21.6137 8.338 21.5997C8.26451 21.5285 8.2129 21.4286 8.19944 21.2839C8.18485 21.1206 8.21514 20.9916 8.29368 20.8968C8.35146 20.8272 8.42944 20.7874 8.51919 20.7616C8.55173 20.7521 8.58146 20.7381 8.61848 20.7347C8.70039 20.7274 8.77555 20.7347 8.84399 20.7582C8.91243 20.7818 8.97133 20.8228 9.01958 20.8822C9.04314 20.9103 9.05324 20.9484 9.06894 20.9821C9.08241 21.0112 9.10372 21.0359 9.11214 21.0701ZM7.83593 21.7843L7.77871 21.1851C7.77534 21.1492 7.76693 21.1206 7.7529 21.0988C7.7271 21.0572 7.68446 21.0393 7.62612 21.0443C7.55825 21.0505 7.51393 21.083 7.49373 21.1425C7.48308 21.1734 7.47971 21.2104 7.48364 21.2519L7.53581 21.8123L7.36415 21.8286L7.28842 21.8359L7.23625 21.2749C7.2312 21.2188 7.2211 21.179 7.20764 21.1549C7.19418 21.1313 7.17398 21.1167 7.14986 21.1066C7.12966 21.0993 7.10722 21.0954 7.07918 21.0976C7.00962 21.1038 6.96474 21.1313 6.94454 21.1795C6.93388 21.2065 6.93108 21.2457 6.93613 21.2968L6.98886 21.8634L6.77008 21.8836L6.73923 21.8864L6.65003 20.9473L6.87891 20.9254L6.88957 20.9243L6.90191 21.0617C6.92715 21.009 6.95296 20.9725 6.9782 20.949C7.02252 20.9075 7.0831 20.8833 7.15883 20.8761C7.16501 20.8755 7.16893 20.8789 7.17566 20.8789C7.23905 20.8755 7.29459 20.8822 7.33835 20.9069C7.37705 20.9327 7.40734 20.9681 7.43034 21.0129C7.4382 20.995 7.45334 20.9877 7.46232 20.9731C7.48532 20.9378 7.5072 20.9002 7.53917 20.8794C7.58686 20.8491 7.64295 20.8301 7.70466 20.8244C7.74617 20.8205 7.78768 20.8244 7.82976 20.8362C7.87127 20.8486 7.91166 20.8732 7.947 20.9103C7.97673 20.9411 7.99861 20.9793 8.01207 21.0264C8.01937 21.0528 8.02497 21.0965 8.03115 21.1453C8.03171 21.1532 8.03339 21.156 8.03395 21.1644L8.08836 21.7579L7.9599 21.7702L7.83593 21.7843ZM3.96747 14.2768L3.8822 13.3691L4.28946 13.3304L4.37698 14.2594L3.97251 14.297C3.97027 14.2902 3.96803 14.2846 3.96747 14.2768ZM7.59751 18.4712C7.54142 18.4762 7.50103 18.4628 7.45447 18.4577C7.33891 18.4442 7.24354 18.4055 7.17847 18.3276C7.17286 18.3214 7.16388 18.3203 7.15827 18.3135C7.11059 18.2473 7.07805 18.1576 7.06347 18.0448L7.21213 18.0308L7.33891 18.0185C7.34396 18.0757 7.35854 18.1222 7.37986 18.1576C7.40398 18.1963 7.43876 18.2182 7.48027 18.2311C7.50888 18.2406 7.53861 18.2473 7.57564 18.2434C7.63061 18.2378 7.67661 18.2148 7.7142 18.1733C7.75122 18.1318 7.76693 18.0757 7.7602 18.0044C7.75178 17.9108 7.70746 17.8513 7.62893 17.8277C7.60368 17.8199 7.5689 17.8165 7.52851 17.816C7.4971 17.8154 7.46288 17.8165 7.42249 17.8199L7.40398 17.6191C7.47186 17.6112 7.51786 17.6005 7.55544 17.5876C7.56722 17.5837 7.58349 17.5792 7.5919 17.5747C7.65193 17.5411 7.67773 17.4822 7.67044 17.3991C7.66483 17.3447 7.6452 17.3021 7.60986 17.2707C7.60593 17.2668 7.59808 17.2696 7.59303 17.2662C7.55937 17.2426 7.52178 17.2275 7.4713 17.232C7.4051 17.2382 7.35798 17.2634 7.33105 17.3083C7.30413 17.3532 7.29403 17.4104 7.30244 17.4805L7.27664 17.4827L7.04047 17.5052C7.03654 17.4339 7.04215 17.3655 7.05786 17.3004C7.07525 17.2421 7.10666 17.1871 7.15098 17.1355C7.18464 17.0985 7.22559 17.0687 7.27439 17.0463C7.28842 17.0396 7.31142 17.0384 7.32825 17.0334C7.36752 17.0205 7.40622 17.007 7.45839 17.0014C7.51729 16.9952 7.57115 17.0003 7.6222 17.0098C7.68727 17.0211 7.74785 17.0413 7.79834 17.0766C7.8421 17.1063 7.87351 17.1439 7.89876 17.1865C7.92624 17.2331 7.94476 17.287 7.95037 17.3492C7.95878 17.4328 7.93971 17.5063 7.89539 17.5691C7.8808 17.5882 7.8651 17.5966 7.84995 17.6101C7.83481 17.6241 7.82022 17.6443 7.80339 17.6521C7.81293 17.6516 7.83088 17.6667 7.84266 17.6712C7.86566 17.6785 7.88529 17.6819 7.91951 17.7077C7.99693 17.7671 8.0418 17.8547 8.0519 17.9691C8.06368 18.0903 8.03227 18.2002 7.95766 18.2989C7.91054 18.3618 7.83873 18.4022 7.75571 18.4308C7.70522 18.4476 7.65754 18.4656 7.59751 18.4712ZM6.50586 21.6676C6.50867 21.6984 6.5126 21.7338 6.51764 21.7764C6.52269 21.8089 6.52942 21.8303 6.53896 21.8409C6.5485 21.8516 6.5614 21.8594 6.57823 21.8662L6.58159 21.9015L6.47052 21.9122L6.31401 21.9268C6.30447 21.9088 6.29774 21.892 6.29325 21.8746C6.28877 21.8583 6.28428 21.8398 6.28147 21.8185C6.25006 21.8583 6.21416 21.8942 6.17209 21.9239C6.12216 21.9593 6.06326 21.9806 5.99594 21.9868C5.95218 21.9907 5.91292 21.9879 5.87533 21.9778C5.83999 21.9688 5.80577 21.9537 5.77716 21.9329C5.7177 21.8903 5.68236 21.8235 5.67394 21.7338C5.66272 21.6182 5.70031 21.5301 5.78445 21.4696C5.82092 21.4438 5.87589 21.4236 5.94096 21.405C5.95948 21.3994 5.97518 21.3933 5.9965 21.3888L6.07952 21.3708C6.12496 21.3607 6.1575 21.3501 6.17601 21.3394C6.21079 21.3215 6.22594 21.2962 6.22257 21.2648C6.21921 21.2261 6.20238 21.2009 6.17489 21.1885C6.14628 21.1767 6.10589 21.1728 6.05316 21.1779C6.00884 21.1818 5.9864 21.2003 5.96284 21.2188C5.95499 21.225 5.93816 21.2244 5.93199 21.2328C5.91684 21.2553 5.90731 21.2856 5.90506 21.3215L5.66777 21.3439C5.66497 21.2614 5.6818 21.1919 5.71882 21.1341C5.76819 21.0567 5.86355 21.0141 5.98921 20.9916C6.00884 20.9882 6.02174 20.9798 6.04362 20.9781C6.14684 20.9681 6.24108 20.9798 6.32467 21.0135C6.40881 21.0466 6.4565 21.119 6.46716 21.234L6.50418 21.6266L6.50586 21.6676ZM5.75023 12.7111L5.5107 12.7335L5.64365 14.141L5.08043 14.1938L4.989 14.2027L4.85492 14.2156L4.64456 11.9841C4.75395 11.9392 4.86895 11.9056 4.989 11.8927C4.99292 11.8921 4.99629 11.891 5.00022 11.8904L5.081 11.8831L6.02343 11.7939C6.04699 11.7917 6.06999 11.7917 6.09299 11.7906C6.4694 11.8635 6.79028 12.1058 6.96586 12.4441C6.98998 12.4912 7.01466 12.5389 7.03374 12.5899L6.94791 12.5978L5.75023 12.7111ZM6.51203 13.1212L6.89181 13.0853L7.39781 13.0382L7.43708 13.4578L7.48364 13.9464C7.4842 13.9537 7.48308 13.9604 7.48364 13.9677L7.37817 13.9778L6.78242 14.0339L6.59898 14.0513L6.51203 13.1212ZM6.72801 14.5208L7.32264 14.4647L7.4253 14.4546C7.39332 14.5505 7.34732 14.6414 7.29235 14.7272C7.26374 14.7732 7.23625 14.8198 7.20203 14.8619C7.06852 15.0229 6.89854 15.1401 6.71062 15.217L6.68257 14.9202L6.64611 14.5281L6.72801 14.5208ZM6.26577 18.5604L5.99313 18.5862C5.9864 18.4835 5.99874 18.3881 6.0324 18.2989C6.06382 18.2002 6.14909 18.0903 6.28765 17.9708C6.3084 17.9523 6.32018 17.941 6.33813 17.9242C6.42621 17.8457 6.49128 17.784 6.51933 17.7475C6.57206 17.6796 6.59506 17.6084 6.58777 17.5343C6.58216 17.4743 6.56084 17.425 6.52381 17.3885C6.49352 17.3582 6.45033 17.3537 6.40433 17.3509C6.39255 17.3503 6.38638 17.3402 6.3746 17.3414C6.28877 17.3498 6.23435 17.3874 6.20911 17.4536C6.19509 17.4923 6.18948 17.5512 6.19396 17.632L5.92133 17.6578C5.9146 17.536 5.92694 17.4356 5.95948 17.3571C6.02118 17.2073 6.14684 17.1237 6.33869 17.1063C6.37235 17.1035 6.4004 17.1102 6.43181 17.1114C6.53896 17.1159 6.63601 17.1389 6.71174 17.1972C6.80879 17.2724 6.86432 17.379 6.87723 17.517C6.88732 17.6224 6.86488 17.7195 6.80879 17.8075C6.77289 17.8659 6.71006 17.9332 6.62198 18.0095L6.51652 18.0998C6.45145 18.1565 6.40657 18.1969 6.38245 18.2221C6.35833 18.2473 6.33869 18.2748 6.32411 18.3057L6.88957 18.2524L6.94735 18.2473L6.97091 18.4942L6.86096 18.5048L6.26577 18.5604ZM4.40446 14.7396L4.42073 14.7379L4.46056 15.1581C4.44149 15.144 4.42129 15.1317 4.4039 15.1166C4.28834 15.0189 4.19242 14.9006 4.11837 14.7665L4.40446 14.7396ZM4.8998 14.693L4.989 14.6846L5.08043 14.6756L5.68797 14.6179L5.75865 15.3656L5.33119 15.406C5.24592 15.4144 5.16234 15.4133 5.08043 15.4049C5.04902 15.4021 5.01985 15.3926 4.989 15.3869C4.98058 15.3858 4.97329 15.3836 4.96544 15.3819L4.8998 14.693ZM4.989 17.4822C4.99965 17.4799 5.01368 17.4771 5.02153 17.4749C5.04678 17.4665 5.0608 17.4485 5.081 17.4356C5.10512 17.4199 5.13541 17.4098 5.15224 17.3879C5.17412 17.3593 5.18926 17.324 5.19824 17.2802C5.20273 17.2539 5.20441 17.2342 5.20329 17.2219L5.43777 17.1994L5.57241 18.6271L5.28463 18.654L5.19151 17.6695L5.081 17.6802L4.98956 17.6892L4.85605 17.701L4.83697 17.5102C4.90541 17.5001 4.95253 17.4917 4.989 17.4822ZM9.31633 17.9635L9.29277 17.7183L9.73594 16.8028L9.97155 16.7804L10.0506 16.7725L10.1348 17.6645L10.2963 17.6493L10.3165 17.8692L10.1555 17.8844L10.1842 18.1918L9.90984 18.217L9.88123 17.9102L9.72528 17.9248L9.31633 17.9635ZM10.9504 18.157C10.8152 18.1699 10.6997 18.1447 10.6054 18.0796C10.5118 18.0145 10.4534 17.9158 10.431 17.7829L10.7115 17.757C10.7277 17.8171 10.7535 17.8625 10.7883 17.8922C10.8225 17.9231 10.8702 17.9354 10.9302 17.9293C10.9992 17.9231 11.0497 17.8928 11.0823 17.8412C11.1137 17.789 11.126 17.7251 11.1187 17.651C11.112 17.5781 11.089 17.5186 11.0509 17.4715C11.0116 17.425 10.9572 17.4042 10.8842 17.4115C10.85 17.4143 10.8209 17.4221 10.7967 17.4322C10.7541 17.4524 10.7244 17.4844 10.7053 17.5293L10.4529 17.5411L10.4607 17.287L10.4787 16.7428L10.5802 16.7333L11.264 16.6693L11.2865 16.9077L10.7031 16.9627L10.6812 17.2791C10.7221 17.2466 10.7535 17.2247 10.7771 17.2135C10.8164 17.195 10.8657 17.1826 10.9235 17.177C11.0413 17.1652 11.1485 17.1955 11.2444 17.2668C11.3386 17.338 11.3947 17.4491 11.4082 17.6011C11.4205 17.7329 11.3891 17.8547 11.3145 17.9663C11.2405 18.0779 11.1187 18.1413 10.9504 18.157ZM11.204 21.4662L10.3025 21.5509L10.183 20.2775L10.4489 20.2523L10.5471 21.2962L11.1827 21.2368L11.204 21.4662ZM12.0988 18.0488C11.9181 18.0656 11.779 18.0033 11.6791 17.8608C11.6023 17.7498 11.554 17.6011 11.5372 17.4154C11.526 17.3066 11.5226 17.2174 11.5254 17.1484C11.5305 17.0255 11.5529 16.9212 11.5928 16.8365C11.6264 16.7636 11.6747 16.703 11.7369 16.6553C11.7986 16.6071 11.876 16.5784 11.9675 16.57C12.1004 16.5577 12.2093 16.5818 12.2945 16.6418C12.3798 16.7024 12.432 16.7883 12.4527 16.9004L12.1734 16.9263C12.1711 16.9033 12.1599 16.8791 12.1391 16.8533C12.1044 16.8118 12.0572 16.7939 11.9961 16.7995C11.9052 16.8084 11.8446 16.8657 11.8155 16.9717C11.7998 17.03 11.793 17.1147 11.7953 17.2258C11.8261 17.1815 11.8637 17.1467 11.9086 17.1232C11.9529 17.0996 12.0045 17.0856 12.0628 17.08C12.1896 17.0682 12.2973 17.1007 12.3871 17.1792C12.4763 17.2578 12.5268 17.3638 12.5391 17.4979C12.5509 17.6308 12.5234 17.752 12.4527 17.8614C12.3843 17.9713 12.2665 18.033 12.0988 18.0488ZM12.9077 17.9354C12.8914 17.6785 12.9509 17.4048 13.0844 17.1131C13.1719 16.9319 13.2465 16.8045 13.3099 16.7305L12.5986 16.7972L12.5789 16.5454L13.587 16.45L13.6078 16.6699C13.5696 16.7153 13.5174 16.7944 13.4524 16.9077C13.3879 17.0205 13.3351 17.1361 13.2953 17.2539C13.2633 17.3464 13.237 17.4575 13.2179 17.5888C13.1977 17.7195 13.1915 17.826 13.1988 17.9085L12.9077 17.9354ZM13.2774 20.3302L13.2527 20.0683L13.4967 20.0453L13.5208 20.3078L13.674 20.2932L13.6902 20.4682L13.5376 20.4828L13.5842 20.9798C13.5876 21.0185 13.5949 21.0421 13.6061 21.0505C13.6162 21.0589 13.6465 21.0612 13.697 21.0567C13.7048 21.0561 13.7121 21.055 13.7205 21.0533C13.7301 21.0522 13.7373 21.0511 13.7452 21.05L13.7626 21.2345L13.6465 21.2491C13.5303 21.2642 13.4496 21.2513 13.4024 21.2115C13.3722 21.1857 13.3542 21.1436 13.3486 21.0842L13.2947 20.5047L13.1629 20.5165L13.1472 20.3414L13.2774 20.3302ZM4.19185 12.2999L4.24346 12.8525L3.89622 12.8856C3.93661 12.687 4.0202 12.4996 4.15259 12.3386C4.16437 12.324 4.17951 12.3134 4.19185 12.2999ZM3.80983 14.7957C3.8132 14.8035 3.81544 14.8125 3.82049 14.8209C3.94895 15.0936 4.1509 15.3219 4.40502 15.4773C4.43363 15.4947 4.46561 15.507 4.4959 15.5227L4.49871 15.5507C4.46617 15.5496 4.437 15.5384 4.40502 15.5345C4.18961 15.5109 3.9899 15.438 3.82049 15.3174C3.64603 15.194 3.50242 15.0313 3.41042 14.8338L3.80983 14.7957ZM19.2792 17.0856L19.3027 17.3324L18.3244 17.4244C18.3177 17.3212 18.3311 17.2264 18.3642 17.1372C18.3951 17.0384 18.4809 16.9285 18.6189 16.8084C18.7395 16.7041 18.8175 16.6295 18.8517 16.5863C18.9045 16.5184 18.9269 16.4472 18.9202 16.3726C18.914 16.3125 18.8932 16.2632 18.8557 16.2267C18.8186 16.1903 18.7693 16.174 18.7059 16.1802C18.6212 16.1886 18.5656 16.2256 18.5404 16.2924C18.5269 16.3305 18.5213 16.39 18.5258 16.4702L18.2526 16.496C18.2459 16.3748 18.2593 16.2738 18.2908 16.1959C18.3513 16.0461 18.4787 15.9625 18.6705 15.9446C18.822 15.9305 18.9454 15.9608 19.0425 16.0365C19.1395 16.1123 19.1945 16.2183 19.2079 16.3563C19.218 16.4618 19.195 16.5594 19.1395 16.6469C19.103 16.7052 19.0408 16.7725 18.9521 16.8483L18.8472 16.9392C18.7816 16.9958 18.7362 17.0362 18.7126 17.0614C18.6885 17.0867 18.67 17.1142 18.6543 17.1456L19.2792 17.0856ZM18.348 19.8181C18.4299 19.8108 18.5056 19.8181 18.574 19.8416C18.6414 19.8652 18.7014 19.9061 18.7491 19.9656C18.7934 20.0189 18.8242 20.08 18.8428 20.1535C18.8534 20.1962 18.8618 20.2579 18.8686 20.3392L18.1831 20.4037C18.1954 20.498 18.2352 20.5613 18.3003 20.5933C18.3396 20.613 18.3867 20.6208 18.4394 20.6163C18.4955 20.6107 18.5398 20.5922 18.5718 20.5597C18.5892 20.5423 18.6049 20.5198 18.6161 20.4901L18.8674 20.4671C18.8663 20.5238 18.8411 20.5832 18.7923 20.6455C18.7154 20.7453 18.6027 20.8014 18.4512 20.816C18.325 20.8278 18.2111 20.8003 18.1079 20.7319C18.0052 20.6634 17.9458 20.5423 17.9289 20.3684C17.9143 20.2057 17.9446 20.0761 18.0232 19.9813C18.1023 19.8854 18.2105 19.831 18.348 19.8181ZM21.3705 16.4393C21.4485 16.4988 21.4928 16.5863 21.5029 16.7007C21.5141 16.8219 21.4827 16.9319 21.4075 17.0312C21.3329 17.1304 21.2129 17.1877 21.0491 17.2034C20.8477 17.2224 20.7013 17.1692 20.6098 17.0452C20.5621 16.9784 20.5302 16.8892 20.515 16.7753L20.791 16.7501C20.7966 16.8073 20.8101 16.8539 20.8314 16.8892C20.8718 16.9543 20.9374 16.9835 21.0272 16.9751C21.0827 16.97 21.1287 16.9464 21.1657 16.9049C21.2033 16.8634 21.2185 16.8073 21.2117 16.7361C21.2033 16.6424 21.159 16.5835 21.081 16.5594C21.0356 16.5459 20.9666 16.5425 20.8735 16.5515L20.855 16.3507C20.9458 16.3406 21.0081 16.3266 21.0429 16.3064C21.1018 16.2727 21.1276 16.2138 21.1197 16.1308C21.1147 16.0764 21.0951 16.0332 21.0603 16.0023C21.0249 15.9715 20.9784 15.9586 20.9212 15.9642C20.855 15.9704 20.8084 15.9956 20.7815 16.0405C20.7545 16.0854 20.745 16.1426 20.7529 16.2127L20.4903 16.2374C20.4864 16.1661 20.4926 16.0977 20.5083 16.0321C20.5257 15.9743 20.5571 15.9193 20.602 15.8677C20.6351 15.8307 20.6766 15.8009 20.7254 15.7779C20.7742 15.7555 20.8348 15.7404 20.9082 15.7342C21.0446 15.7213 21.1579 15.7465 21.2482 15.8088C21.338 15.8711 21.389 15.9625 21.4002 16.0809C21.4081 16.165 21.389 16.2379 21.3447 16.3008C21.3166 16.34 21.2863 16.3675 21.2532 16.3832C21.2802 16.3815 21.3183 16.4001 21.3705 16.4393ZM22.5188 17.0289L22.2434 17.0547L22.2148 16.7473L21.6499 16.8006L21.6263 16.5554L22.0695 15.6399L22.3847 15.6102L22.4689 16.5016L22.6299 16.4864L22.6501 16.7063L22.4885 16.7215L22.5188 17.0289ZM23.3833 16.3086C23.344 16.2621 23.289 16.2413 23.2161 16.2486C23.1824 16.252 23.1538 16.2593 23.1297 16.2699C23.0871 16.2901 23.0573 16.3221 23.0388 16.367L22.7864 16.3787L22.8122 15.5805L23.597 15.5064L23.6194 15.7448L23.036 15.7998L23.0147 16.1162C23.0556 16.0842 23.0871 16.0618 23.1106 16.0506C23.1499 16.0321 23.1987 16.0197 23.2565 16.0141C23.3748 16.0029 23.4809 16.0332 23.5768 16.1039C23.6722 16.1751 23.7271 16.2862 23.7412 16.4382C23.7529 16.57 23.7221 16.6918 23.6475 16.8034C23.5723 16.915 23.4511 16.9784 23.2823 16.9941C23.1465 17.007 23.0321 16.9812 22.9378 16.9167C22.8436 16.8516 22.7858 16.7529 22.7628 16.6205L23.0427 16.5942C23.0596 16.6542 23.0854 16.6991 23.1196 16.7299C23.1544 16.7602 23.2015 16.7725 23.2621 16.7664C23.3316 16.7596 23.3821 16.7305 23.4141 16.6777C23.4461 16.625 23.4579 16.5622 23.4511 16.4881C23.4444 16.4158 23.422 16.3557 23.3833 16.3086ZM24.7874 16.6991C24.7172 16.8084 24.5989 16.8707 24.4312 16.887C24.2516 16.9038 24.112 16.841 24.0127 16.6985C23.9353 16.5874 23.8876 16.4393 23.8696 16.2536C23.859 16.1448 23.8562 16.0551 23.8584 15.9866C23.864 15.8638 23.8859 15.7594 23.9252 15.6742C23.9599 15.6012 24.0076 15.5412 24.0699 15.493C24.1316 15.4447 24.209 15.4167 24.301 15.4077C24.4328 15.3954 24.5422 15.4195 24.6275 15.4795C24.7128 15.5401 24.7655 15.6265 24.7857 15.7381L24.5063 15.7645C24.5041 15.7415 24.4934 15.7174 24.4721 15.6916C24.4373 15.65 24.3896 15.6321 24.3291 15.6377C24.2376 15.6467 24.1776 15.7039 24.149 15.8094C24.1327 15.8677 24.1265 15.9524 24.1288 16.0635C24.1596 16.0192 24.1972 15.9849 24.241 15.9614C24.2859 15.9378 24.3369 15.9232 24.3964 15.9182C24.5232 15.9064 24.6303 15.9395 24.7195 16.0175C24.8092 16.096 24.8603 16.202 24.8715 16.3355C24.885 16.4691 24.8569 16.5897 24.7874 16.6991Z" fill="#8798AD"/>
<path d="M21.2737 10.526L20.9826 10.5535L20.8485 10.5664L20.6931 10.5809L20.2393 10.6236L19.8937 10.6567L19.7445 10.6707L19.6031 10.6842L19.3114 10.7117C19.3086 10.6668 19.3137 10.623 19.3131 10.5776C19.3131 10.5579 19.3131 10.5378 19.3137 10.5181C19.3142 10.4794 19.3114 10.4407 19.3142 10.4031L19.372 10.3981L19.6054 10.3756L19.8965 10.3481L20.6163 10.2803L20.9192 10.2517L21.2148 10.223L21.4678 10.1995C21.4656 10.1911 21.4605 10.1832 21.4577 10.1748C21.4229 10.0609 21.3792 9.95154 21.3276 9.84663L21.0763 9.87019L20.7722 9.8988L20.448 9.9291L19.9801 9.97285L19.8264 9.98744L19.6721 10.002L19.3692 10.0306C19.376 9.99978 19.381 9.96836 19.3889 9.93807C19.4102 9.85841 19.4337 9.78212 19.4623 9.70583L19.7911 9.67442L20.1288 9.64244L20.2219 9.63347L20.5759 9.60037L20.9074 9.56839L21.129 9.54764L21.1402 9.54651C21.051 9.42703 20.9517 9.31764 20.8412 9.22059C20.8367 9.21722 20.8334 9.21218 20.83 9.20881L20.7055 9.22059L20.6381 9.22676L20.4412 9.24583L20.2589 9.26266L20.0188 9.28566L19.8118 9.30474L19.6452 9.32044C19.6598 9.29464 19.6789 9.27164 19.6951 9.24639C19.6783 9.23798 19.6609 9.22844 19.6441 9.22059C19.4147 9.11793 19.1622 9.05566 18.8941 9.05566C18.8357 9.05566 18.7774 9.05903 18.7185 9.06408C18.5283 9.08259 18.3483 9.13644 18.1766 9.20881C18.1676 9.21274 18.1581 9.21666 18.1485 9.22059C17.8944 9.33335 17.6633 9.49771 17.4799 9.71761C17.4782 9.71929 17.4759 9.72042 17.4748 9.7221C17.3722 9.84607 17.2947 9.98407 17.2286 10.126C17.2252 10.1339 17.2229 10.1417 17.2196 10.149C17.2011 10.1894 17.1837 10.2292 17.1691 10.2696C17.1197 10.4054 17.0816 10.5445 17.0664 10.6887C17.0653 10.6988 17.0636 10.7088 17.0631 10.7195C17.053 10.8339 17.0513 10.9512 17.0619 11.0679C17.0698 11.1464 17.0906 11.2199 17.1063 11.2956C17.1074 11.3018 17.1085 11.3074 17.1096 11.3136C17.3138 12.1921 18.1255 12.8153 19.0652 12.7267C19.4208 12.693 19.7501 12.5578 20.0239 12.3424L20.0918 12.3362L20.4895 12.2986L20.5316 12.2947L20.8799 12.2622L20.9057 12.2599C20.9231 12.2425 20.9349 12.2207 20.9517 12.2038C20.9725 12.1831 20.9876 12.1584 21.0067 12.1371C21.0869 12.049 21.1688 11.9632 21.2328 11.8628L21.0981 11.8757L20.7683 11.9065L20.5203 11.9301L20.3941 11.9419L20.1894 11.9615L20.1478 11.9654L19.7855 11.9996C19.7512 11.9542 19.7266 11.9032 19.6957 11.8555C19.6688 11.8145 19.6419 11.7747 19.6183 11.7321L19.947 11.7012L20.2404 11.6737L20.2741 11.6709L20.5641 11.6434L20.8934 11.612L21.2058 11.5828L21.2148 11.5817L21.3859 11.5649C21.4314 11.4572 21.4639 11.3433 21.4903 11.2272C21.4931 11.2137 21.5004 11.2008 21.5026 11.1874L21.3051 11.2059L21.2911 11.207L20.9887 11.2356L20.6858 11.2642L20.0665 11.3226L20.0216 11.3265L19.7641 11.3506L19.4601 11.3792C19.4371 11.3169 19.4107 11.2558 19.3928 11.1913C19.3821 11.1526 19.3793 11.1111 19.3703 11.0712L19.6632 11.0437L19.7877 11.032L19.9538 11.0163L20.7217 10.9439L20.9293 10.9237L21.0112 10.9158L21.3035 10.8884L21.5424 10.8654C21.5435 10.8339 21.5419 10.8025 21.543 10.7711C21.5447 10.729 21.5458 10.687 21.5435 10.6443C21.543 10.6219 21.5463 10.6011 21.5441 10.5781C21.5419 10.5512 21.5323 10.5265 21.5295 10.5002L21.2737 10.526Z" fill="#8798AD"/>
</g>
<defs>
<clipPath id="clip0">
<rect width="36.0896" height="36.0896" fill="white"/>
</clipPath>
</defs>
</svg>
