<svg width="32" height="27" viewBox="0 0 32 27" fill="none" xmlns="http://www.w3.org/2000/svg">
<path fill-rule="evenodd" clip-rule="evenodd" d="M5.82842 22.4323V7.55894L16.0041 15.7723L26.1713 7.55894V22.4323H5.82842ZM24.5715 6.78799L16.0572 13.4928L7.42861 6.78799H24.5715ZM25.8182 5H6.18182C4.97855 5 4 5.9568 4 7.13333V22.0667C4 23.2432 4.97855 24.2 6.18182 24.2H25.8182C27.0215 24.2 28 23.2432 28 22.0667V7.13333C28 5.9568 27.0215 5 25.8182 5Z" fill="#BFC5D2"/>
<path d="M31 6C31 8.76142 28.7614 11 26 11C23.2386 11 21 8.76142 21 6C21 3.23858 23.2386 1 26 1C28.7614 1 31 3.23858 31 6Z" fill="#95B19E" stroke="white" stroke-width="2"/>
</svg>
