<svg width="14" height="14" viewBox="0 0 14 14" fill="none" xmlns="http://www.w3.org/2000/svg">
<path d="M7 0C3.1402 0 0 3.14024 0 7.00004C0 10.8598 3.1402 14 7 14C10.8598 14 14 10.8598 14 7.00004C14 3.14024 10.8598 0 7 0ZM7 12.7273C3.84194 12.7273 1.27273 10.1581 1.27273 7.00004C1.27273 3.84202 3.84194 1.27273 7 1.27273C10.1581 1.27273 12.7273 3.84202 12.7273 7.00004C12.7273 10.1581 10.158 12.7273 7 12.7273Z" fill="#E4E8F0"/>
<path d="M7.00017 2.96973C6.5324 2.96973 6.15186 3.35053 6.15186 3.81859C6.15186 4.28624 6.5324 4.6667 7.00017 4.6667C7.46794 4.6667 7.84849 4.28624 7.84849 3.81859C7.84849 3.35053 7.46794 2.96973 7.00017 2.96973Z" fill="#E4E8F0"/>
<path d="M7.00013 5.93945C6.64869 5.93945 6.36377 6.22437 6.36377 6.57582V10.394C6.36377 10.7454 6.64869 11.0304 7.00013 11.0304C7.35158 11.0304 7.6365 10.7454 7.6365 10.394V6.57582C7.6365 6.22437 7.35158 5.93945 7.00013 5.93945Z" fill="#E4E8F0"/>
</svg>
