<svg width="80" height="56" viewBox="0 0 80 56" fill="none" xmlns="http://www.w3.org/2000/svg">
<path d="M33.6 23.6C35.0076 23.6 36.1728 22.5544 36.368 21.2H48.8C49.0212 21.2 49.2 21.0212 49.2 20.8C49.2 20.5788 49.0212 20.4 48.8 20.4H36.368C36.1728 19.0456 35.0076 18 33.6 18C32.0564 18 30.8 19.2564 30.8 20.8C30.8 22.3436 32.0564 23.6 33.6 23.6ZM33.6 18.8C34.7028 18.8 35.6 19.6972 35.6 20.8C35.6 21.9028 34.7028 22.8 33.6 22.8C32.4972 22.8 31.6 21.9028 31.6 20.8C31.6 19.6972 32.4972 18.8 33.6 18.8Z" fill="#95B19E"/>
<path d="M31.2 35.6H43.632C43.8272 36.9544 44.9924 38 46.4 38C47.9436 38 49.2 36.7436 49.2 35.2C49.2 33.6564 47.9436 32.4 46.4 32.4C44.9924 32.4 43.8272 33.4456 43.632 34.8H31.2C30.9788 34.8 30.8 34.9788 30.8 35.2C30.8 35.4212 30.9788 35.6 31.2 35.6ZM46.4 33.2C47.5028 33.2 48.4 34.0972 48.4 35.2C48.4 36.3028 47.5028 37.2 46.4 37.2C45.2972 37.2 44.4 36.3028 44.4 35.2C44.4 34.0972 45.2972 33.2 46.4 33.2Z" fill="#95B19E"/>
<path d="M31.2 28.4H37.632C37.8272 29.7544 38.9924 30.8 40.4 30.8C41.8076 30.8 42.9728 29.7544 43.168 28.4H48.8C49.0212 28.4 49.2 28.2212 49.2 28C49.2 27.7788 49.0212 27.6 48.8 27.6H43.168C42.9728 26.2456 41.8076 25.2 40.4 25.2C38.9924 25.2 37.8272 26.2456 37.632 27.6H31.2C30.9788 27.6 30.8 27.7788 30.8 28C30.8 28.2212 30.9788 28.4 31.2 28.4ZM40.4 26C41.5028 26 42.4 26.8972 42.4 28C42.4 29.1028 41.5028 30 40.4 30C39.2972 30 38.4 29.1028 38.4 28C38.4 26.8972 39.2972 26 40.4 26Z" fill="#95B19E"/>
<path fill-rule="evenodd" clip-rule="evenodd" d="M50 17H30C29.4477 17 29 17.4477 29 18V38C29 38.5523 29.4477 39 30 39H50C50.5523 39 51 38.5523 51 38V18C51 17.4477 50.5523 17 50 17ZM30 16C28.8954 16 28 16.8954 28 18V38C28 39.1046 28.8954 40 30 40H50C51.1046 40 52 39.1046 52 38V18C52 16.8954 51.1046 16 50 16H30Z" fill="#95B19E"/>
</svg>
