<svg width="18" height="18" viewBox="0 0 18 18" fill="none" xmlns="http://www.w3.org/2000/svg">
<circle cx="9" cy="9" r="9" fill="#E4E8F0"/>
<path d="M13.1071 8.10714H10.0714C9.97281 8.10714 9.89286 8.02719 9.89286 7.92857V4.89286C9.89286 4.39978 9.49308 4 9 4C8.50692 4 8.10714 4.39978 8.10714 4.89286V7.92857C8.10714 8.02719 8.02719 8.10714 7.92857 8.10714H4.89286C4.39978 8.10714 4 8.50692 4 9C4 9.49308 4.39978 9.89286 4.89286 9.89286H7.92857C8.02719 9.89286 8.10714 9.97281 8.10714 10.0714V13.1071C8.10714 13.6002 8.50692 14 9 14C9.49308 14 9.89286 13.6002 9.89286 13.1071V10.0714C9.89286 9.97281 9.97281 9.89286 10.0714 9.89286H13.1071C13.6002 9.89286 14 9.49308 14 9C14 8.50692 13.6002 8.10714 13.1071 8.10714Z" fill="#8798AD"/>
</svg>
