<svg width="24" height="24" viewBox="0 0 24 24" fill="none" xmlns="http://www.w3.org/2000/svg">
<path d="M5.6 7.6C7.0076 7.6 8.1728 6.5544 8.368 5.2H20.8C21.0212 5.2 21.2 5.0212 21.2 4.8C21.2 4.5788 21.0212 4.4 20.8 4.4H8.368C8.1728 3.0456 7.0076 2 5.6 2C4.0564 2 2.8 3.2564 2.8 4.8C2.8 6.3436 4.0564 7.6 5.6 7.6ZM5.6 2.8C6.7028 2.8 7.6 3.6972 7.6 4.8C7.6 5.9028 6.7028 6.8 5.6 6.8C4.4972 6.8 3.6 5.9028 3.6 4.8C3.6 3.6972 4.4972 2.8 5.6 2.8Z" fill="#95B19E"/>
<path d="M3.2 19.6H15.632C15.8272 20.9544 16.9924 22 18.4 22C19.9436 22 21.2 20.7436 21.2 19.2C21.2 17.6564 19.9436 16.4 18.4 16.4C16.9924 16.4 15.8272 17.4456 15.632 18.8H3.2C2.9788 18.8 2.8 18.9788 2.8 19.2C2.8 19.4212 2.9788 19.6 3.2 19.6ZM18.4 17.2C19.5028 17.2 20.4 18.0972 20.4 19.2C20.4 20.3028 19.5028 21.2 18.4 21.2C17.2972 21.2 16.4 20.3028 16.4 19.2C16.4 18.0972 17.2972 17.2 18.4 17.2Z" fill="#95B19E"/>
<path d="M3.2 12.4H9.632C9.8272 13.7544 10.9924 14.8 12.4 14.8C13.8076 14.8 14.9728 13.7544 15.168 12.4H20.8C21.0212 12.4 21.2 12.2212 21.2 12C21.2 11.7788 21.0212 11.6 20.8 11.6H15.168C14.9728 10.2456 13.8076 9.2 12.4 9.2C10.9924 9.2 9.8272 10.2456 9.632 11.6H3.2C2.9788 11.6 2.8 11.7788 2.8 12C2.8 12.2212 2.9788 12.4 3.2 12.4ZM12.4 10C13.5028 10 14.4 10.8972 14.4 12C14.4 13.1028 13.5028 14 12.4 14C11.2972 14 10.4 13.1028 10.4 12C10.4 10.8972 11.2972 10 12.4 10Z" fill="#95B19E"/>
<path fill-rule="evenodd" clip-rule="evenodd" d="M22 1H2C1.44772 1 1 1.44772 1 2V22C1 22.5523 1.44772 23 2 23H22C22.5523 23 23 22.5523 23 22V2C23 1.44772 22.5523 1 22 1ZM2 0C0.895431 0 0 0.89543 0 2V22C0 23.1046 0.89543 24 2 24H22C23.1046 24 24 23.1046 24 22V2C24 0.895431 23.1046 0 22 0H2Z" fill="#95B19E"/>
</svg>
