<svg width="23" height="23" viewBox="0 0 23 23" fill="none" xmlns="http://www.w3.org/2000/svg">
<g clip-path="url(#clip0)">
<path d="M8.45447 0.240453L2.70437 5.99056C2.38362 6.31141 2.38372 6.83151 2.70456 7.15226C2.85858 7.30623 3.06737 7.39272 3.28517 7.39277L5.74949 7.39277L5.74949 13.1429C5.74949 13.5966 6.11727 13.9643 6.57095 13.9643C7.02464 13.9643 7.39241 13.5966 7.39241 13.1429L7.39241 6.57132C7.39241 6.11763 7.02464 5.74986 6.57095 5.74986L5.26808 5.74986L9.03523 1.98271L12.8024 5.74986L11.4996 5.74986C11.0459 5.74986 10.6781 6.11763 10.6781 6.57132L10.6781 15.6072L8.21377 15.6072C7.76008 15.6073 7.39241 15.9752 7.39251 16.4288C7.39255 16.6466 7.47905 16.8554 7.63302 17.0094L13.3831 22.7595C13.7039 23.0802 14.2239 23.0802 14.5446 22.7595L20.2947 17.0094C20.4488 16.8553 20.5354 16.6465 20.5354 16.4286C20.5358 16.3207 20.5146 16.2137 20.473 16.114C20.3458 15.8071 20.0462 15.6071 19.714 15.6072L17.2497 15.6072L17.2497 9.8571C17.2497 9.40341 16.8819 9.03564 16.4282 9.03564C15.9745 9.03564 15.6067 9.40341 15.6067 9.8571L15.6067 16.4286C15.6067 16.8823 15.9745 17.2501 16.4282 17.2501L17.731 17.2501L13.9639 21.0172L10.1967 17.2501L11.4996 17.2501C11.9532 17.2501 12.321 16.8823 12.321 16.4286L12.321 7.39277L14.7853 7.39277C15.239 7.39268 15.6067 7.02481 15.6066 6.57117C15.6066 6.35342 15.5201 6.14458 15.3661 5.99056L9.61598 0.240453C9.29518 -0.0801986 8.77522 -0.0801986 8.45447 0.240453Z" fill="#95B19E"/>
</g>
<defs>
<clipPath id="clip0">
<rect width="23" height="23" fill="white" transform="translate(0 23) rotate(-90)"/>
</clipPath>
</defs>
</svg>
