<svg width="24" height="24" viewBox="0 0 24 24" fill="none" xmlns="http://www.w3.org/2000/svg">
<path d="M5.60005 7.6C7.00765 7.6 8.17285 6.5544 8.36805 5.2H20.8001C21.0213 5.2 21.2001 5.0212 21.2001 4.8C21.2001 4.5788 21.0213 4.4 20.8001 4.4H8.36805C8.17285 3.0456 7.00765 2 5.60005 2C4.05645 2 2.80005 3.2564 2.80005 4.8C2.80005 6.3436 4.05645 7.6 5.60005 7.6ZM5.60005 2.8C6.70285 2.8 7.60005 3.6972 7.60005 4.8C7.60005 5.9028 6.70285 6.8 5.60005 6.8C4.49725 6.8 3.60005 5.9028 3.60005 4.8C3.60005 3.6972 4.49725 2.8 5.60005 2.8Z" fill="#95B19E"/>
<path d="M3.20005 19.5999H15.6321C15.8273 20.9543 16.9925 21.9999 18.4001 21.9999C19.9437 21.9999 21.2001 20.7435 21.2001 19.1999C21.2001 17.6563 19.9437 16.3999 18.4001 16.3999C16.9925 16.3999 15.8273 17.4455 15.6321 18.7999H3.20005C2.97885 18.7999 2.80005 18.9787 2.80005 19.1999C2.80005 19.4211 2.97885 19.5999 3.20005 19.5999ZM18.4001 17.1999C19.5029 17.1999 20.4001 18.0971 20.4001 19.1999C20.4001 20.3027 19.5029 21.1999 18.4001 21.1999C17.2973 21.1999 16.4001 20.3027 16.4001 19.1999C16.4001 18.0971 17.2973 17.1999 18.4001 17.1999Z" fill="#95B19E"/>
<path d="M3.20005 12.4002H9.63205C9.82725 13.7546 10.9924 14.8002 12.4 14.8002C13.8076 14.8002 14.9728 13.7546 15.168 12.4002H20.8001C21.0213 12.4002 21.2001 12.2214 21.2001 12.0002C21.2001 11.779 21.0213 11.6002 20.8001 11.6002H15.168C14.9728 10.2458 13.8076 9.2002 12.4 9.2002C10.9924 9.2002 9.82725 10.2458 9.63205 11.6002H3.20005C2.97885 11.6002 2.80005 11.779 2.80005 12.0002C2.80005 12.2214 2.97885 12.4002 3.20005 12.4002ZM12.4 10.0002C13.5028 10.0002 14.4 10.8974 14.4 12.0002C14.4 13.103 13.5028 14.0002 12.4 14.0002C11.2972 14.0002 10.4 13.103 10.4 12.0002C10.4 10.8974 11.2972 10.0002 12.4 10.0002Z" fill="#95B19E"/>
<path fill-rule="evenodd" clip-rule="evenodd" d="M22 1H2C1.44772 1 1 1.44772 1 2V22C1 22.5523 1.44772 23 2 23H22C22.5523 23 23 22.5523 23 22V2C23 1.44772 22.5523 1 22 1ZM2 0C0.895431 0 0 0.89543 0 2V22C0 23.1046 0.89543 24 2 24H22C23.1046 24 24 23.1046 24 22V2C24 0.895431 23.1046 0 22 0H2Z" fill="#95B19E"/>
</svg>
