<svg width="22" height="22" viewBox="0 0 22 22" fill="none" xmlns="http://www.w3.org/2000/svg">
<path fill-rule="evenodd" clip-rule="evenodd" d="M11 21C16.5228 21 21 16.5228 21 11C21 5.47715 16.5228 1 11 1C5.47715 1 1 5.47715 1 11C1 16.5228 5.47715 21 11 21Z" fill="#FFFBFC" stroke="#E4E8F0" stroke-width="0.5"/>
<path fill-rule="evenodd" clip-rule="evenodd" d="M16.6682 8.03055L9.79977 15.2512C9.35741 15.7163 8.64127 15.7163 8.20004 15.2512L5.33092 12.2362C4.88969 11.7711 4.88969 11.0182 5.33092 10.5532C5.77328 10.0894 6.48943 10.0894 6.93066 10.5532L8.99991 12.7286L15.0685 6.34878C15.5097 5.88374 16.2259 5.88374 16.6682 6.34878C17.1106 6.81264 17.1106 7.56551 16.6682 8.03055Z" fill="#8798AD"/>
</svg>
