<svg width="80" height="56" viewBox="0 0 80 56" fill="none" xmlns="http://www.w3.org/2000/svg">
<path d="M47.7922 16H32.2078C29.8876 16 28 17.8876 28 20.2078V29.8204C28 32.1406 29.8876 34.0281 32.2078 34.0281L42.1342 34.0282L46.8861 38.7799C47.0471 38.9411 47.2623 39.0265 47.4813 39.0265C47.5897 39.0265 47.6991 39.0055 47.8031 38.9623C48.1176 38.8321 48.3227 38.5254 48.3227 38.1849V33.9949C50.3935 33.7333 52 31.961 52 29.8204V20.2078C52 17.8876 50.1124 16 47.7922 16ZM50.3169 29.8204C50.3169 31.2126 49.1844 32.3451 47.7922 32.3451H47.4811C47.0164 32.3451 46.6396 32.722 46.6396 33.1867V36.1532L43.0779 32.5916C42.9201 32.4337 42.7062 32.3451 42.4828 32.3451H32.2078C30.8156 32.3451 29.6831 31.2126 29.6831 29.8204V20.2079C29.6831 18.8158 30.8156 17.6832 32.2078 17.6832H47.7922C49.1844 17.6832 50.3169 18.8158 50.3169 20.2079V29.8204Z" fill="#95B19E"/>
<path d="M46.1939 21.9591H33.8062C33.3415 21.9591 32.9647 22.3359 32.9647 22.8007C32.9647 23.2654 33.3415 23.6422 33.8062 23.6422H46.1939C46.6586 23.6422 47.0354 23.2654 47.0354 22.8007C47.0354 22.3359 46.6587 21.9591 46.1939 21.9591Z" fill="#95B19E"/>
<path d="M46.1939 26.6718H33.8062C33.3415 26.6718 32.9647 27.0486 32.9647 27.5134C32.9647 27.9782 33.3415 28.3549 33.8062 28.3549H46.1939C46.6586 28.3549 47.0354 27.9781 47.0354 27.5134C47.0354 27.0486 46.6587 26.6718 46.1939 26.6718Z" fill="#95B19E"/>
</svg>
