<svg width="14" height="14" viewBox="0 0 14 14" fill="none" xmlns="http://www.w3.org/2000/svg">
<path d="M13.7403 8.88759L13.7405 8.88372C13.9083 8.2839 14 7.65269 14 7C14 6.34731 13.9083 5.7161 13.7405 5.11628L13.7403 5.11241L13.7379 5.10759C13.6749 4.88383 13.6012 4.6649 13.5172 4.45079V4.37138C13.5172 4.28424 13.4687 4.21159 13.3997 4.1691C13.3147 3.97793 13.2223 3.79134 13.1211 3.60959C13.1634 3.64555 13.216 3.66945 13.2759 3.66945C13.4091 3.66945 13.5172 3.56155 13.5172 3.42807V3.19224C13.5172 3.05876 13.4091 2.95086 13.2759 2.95086C13.1426 2.95086 13.0345 3.05876 13.0345 3.19224V3.42807C13.0345 3.44255 13.0403 3.45486 13.0427 3.46862C13.0256 3.43941 13.0077 3.41093 12.9901 3.38197C12.9869 3.37666 12.9838 3.37134 12.9804 3.36628C12.9638 3.339 12.9478 3.31124 12.9307 3.28421C12.9283 3.28034 12.9242 3.27841 12.9218 3.27479C12.7646 3.02569 12.5932 2.78648 12.4069 2.55983C12.4052 2.55741 12.4047 2.55476 12.403 2.55234C12.355 2.49417 12.3062 2.43672 12.2565 2.38024C12.2529 2.37614 12.2478 2.37445 12.244 2.37059C12.0513 2.15262 11.8454 1.94697 11.6272 1.75434C11.6236 1.75072 11.6222 1.7459 11.6181 1.74252C11.5616 1.69303 11.5044 1.64428 11.4464 1.59672C11.4448 1.59528 11.4426 1.59503 11.4407 1.59359C11.2135 1.40676 10.9738 1.23514 10.7242 1.07776C10.7206 1.0751 10.7187 1.07124 10.7146 1.06859C10.688 1.05193 10.6608 1.036 10.634 1.01983C10.6289 1.01669 10.6238 1.01355 10.6185 1.01041C10.5891 0.992552 10.5596 0.974207 10.5299 0.956828C10.5451 0.959483 10.5591 0.965517 10.5753 0.965517H10.8111C10.9444 0.965517 11.0525 0.857621 11.0525 0.724138C11.0525 0.590655 10.9444 0.482759 10.8111 0.482759H10.5753C10.4421 0.482759 10.3339 0.590655 10.3339 0.724138C10.3339 0.785207 10.3586 0.839276 10.3957 0.881759C10.2125 0.779655 10.024 0.686 9.83114 0.60031C9.78866 0.531276 9.71576 0.482759 9.62886 0.482759H9.54945C9.3351 0.398517 9.11593 0.324897 8.89193 0.261897L8.88783 0.259966H8.88469C8.28462 0.0917241 7.65293 0 7 0C6.34707 0 5.71538 0.0917241 5.11531 0.259966H5.11217L5.10807 0.261897C4.88407 0.324897 4.6649 0.398517 4.45055 0.482759H4.37114C4.284 0.482759 4.21134 0.531276 4.16886 0.60031C3.97769 0.685276 3.7911 0.777724 3.60934 0.878862C3.64531 0.836621 3.66921 0.784 3.66921 0.724138C3.66921 0.590655 3.56107 0.482759 3.42783 0.482759H3.192C3.05876 0.482759 2.95062 0.590655 2.95062 0.724138C2.95062 0.857621 3.05876 0.965517 3.192 0.965517H3.42783C3.44231 0.965517 3.45486 0.959724 3.46862 0.95731C3.44014 0.973965 3.41214 0.991586 3.3839 1.00848C3.37714 1.01259 3.37062 1.01645 3.36386 1.02055C3.33707 1.03697 3.31003 1.05266 3.28348 1.06907C3.27962 1.07148 3.27769 1.07534 3.27407 1.078C3.02497 1.23562 2.78552 1.407 2.55862 1.59359C2.55669 1.59503 2.55428 1.59552 2.55234 1.59697C2.49417 1.64476 2.43672 1.69352 2.38024 1.74348C2.37614 1.7471 2.37469 1.75169 2.37131 1.75531C2.1531 1.94817 1.94697 2.15407 1.75434 2.37228C1.75072 2.37614 1.7459 2.37759 1.74228 2.38145C1.69255 2.43793 1.64379 2.49538 1.59576 2.55355C1.59407 2.55572 1.59383 2.55838 1.59214 2.56055C1.40579 2.78697 1.23466 3.02641 1.07752 3.27528C1.07486 3.27914 1.07052 3.28131 1.0681 3.28541C1.05072 3.31317 1.03431 3.34141 1.01741 3.36941C1.01548 3.37207 1.01379 3.37497 1.0121 3.37786C0.993517 3.40852 0.97469 3.43893 0.956586 3.46983C0.959483 3.45486 0.965517 3.44086 0.965517 3.42469V3.18886C0.965517 3.05538 0.857379 2.94748 0.724138 2.94748C0.590897 2.94748 0.482759 3.05538 0.482759 3.18886V3.42469C0.482759 3.55817 0.590897 3.66607 0.724138 3.66607C0.785207 3.66607 0.839276 3.64145 0.881759 3.60428C0.779655 3.78748 0.686 3.976 0.60031 4.16886C0.531276 4.21134 0.482759 4.28424 0.482759 4.37114V4.45055C0.398759 4.66465 0.324897 4.88383 0.262138 5.10734L0.259724 5.11217L0.259483 5.11603C0.0917242 5.7161 0 6.34731 0 7C0 7.65269 0.0917242 8.2839 0.259483 8.88372L0.259724 8.88759C0.260207 8.88976 0.261655 8.89145 0.262379 8.89362C0.325138 9.1169 0.398759 9.33559 0.482759 9.54945V9.62886C0.482759 9.716 0.531276 9.78866 0.60031 9.83114C0.685276 10.0223 0.777724 10.2089 0.878862 10.3907C0.836621 10.3547 0.783759 10.3308 0.724138 10.3308C0.590897 10.3308 0.482759 10.4387 0.482759 10.5722V10.808C0.482759 10.9415 0.590897 11.0494 0.724138 11.0494C0.857379 11.0494 0.965517 10.9415 0.965517 10.808V10.5722C0.965517 10.5579 0.959724 10.5456 0.95731 10.5319C0.975172 10.5623 0.993759 10.5922 1.0121 10.6221C1.01379 10.625 1.01548 10.6279 1.01741 10.6308C1.03479 10.6593 1.05145 10.688 1.06907 10.716C1.07293 10.7223 1.07848 10.7269 1.08283 10.7327C1.23876 10.9791 1.40845 11.2162 1.5931 11.4407C1.59479 11.4431 1.59528 11.4457 1.59697 11.4481C1.645 11.5063 1.69376 11.5638 1.74348 11.6202C1.74686 11.6241 1.75169 11.6253 1.75531 11.6289C1.94817 11.8474 2.15431 12.0533 2.37276 12.2461C2.37638 12.2498 2.37783 12.2546 2.38193 12.258C2.43841 12.3074 2.49562 12.3562 2.55355 12.4038C2.55548 12.4054 2.55814 12.4059 2.56007 12.4074C2.78697 12.594 3.02641 12.7653 3.27576 12.9227C3.27938 12.9254 3.28131 12.9292 3.28541 12.9319C3.31197 12.9486 3.33924 12.9645 3.36603 12.9807C3.3711 12.9838 3.37617 12.9869 3.38148 12.9901C3.41093 13.0079 3.44014 13.0263 3.47007 13.0437C3.45486 13.0405 3.44086 13.0345 3.42469 13.0345H3.18886C3.05562 13.0345 2.94748 13.1424 2.94748 13.2759C2.94748 13.4093 3.05562 13.5172 3.18886 13.5172H3.42469C3.55793 13.5172 3.66607 13.4093 3.66607 13.2759C3.66607 13.215 3.64145 13.1607 3.60428 13.1182C3.78748 13.2203 3.976 13.314 4.16886 13.3997C4.21134 13.4687 4.28424 13.5172 4.37114 13.5172H4.45055C4.6649 13.6015 4.88407 13.6751 5.10807 13.7381L5.11217 13.74L5.117 13.7405C5.71659 13.9083 6.34755 14 7 14C7.65245 14 8.28341 13.9083 8.883 13.7405L8.88783 13.74L8.89193 13.7381C9.11593 13.6751 9.3351 13.6015 9.54945 13.5172H9.62886C9.716 13.5172 9.78866 13.4687 9.83114 13.3997C10.0223 13.3147 10.2091 13.2223 10.3907 13.1211C10.3547 13.1634 10.3308 13.216 10.3308 13.2759C10.3308 13.4093 10.4389 13.5172 10.5722 13.5172H10.808C10.9412 13.5172 11.0494 13.4093 11.0494 13.2759C11.0494 13.1424 10.9412 13.0345 10.808 13.0345H10.5722C10.5577 13.0345 10.5451 13.0403 10.5314 13.0427C10.5599 13.026 10.5879 13.0084 10.6161 12.9915C10.6229 12.9874 10.6294 12.9836 10.6361 12.9794C10.6629 12.963 10.69 12.9473 10.7165 12.9309C10.7204 12.9285 10.7223 12.9247 10.7259 12.922C10.9748 12.7649 11.2142 12.5937 11.4407 12.4074C11.4428 12.4057 11.4457 12.405 11.4479 12.4033C11.5061 12.3555 11.5635 12.3067 11.62 12.2568C11.6239 12.2534 11.6253 12.2486 11.6289 12.2449C11.8474 12.0518 12.0535 11.8454 12.2466 11.627C12.25 11.6236 12.2546 11.6224 12.2577 11.6188C12.3074 11.5623 12.3562 11.5049 12.4042 11.4467C12.4059 11.4445 12.4062 11.4419 12.4079 11.4397C12.5925 11.2152 12.7622 10.9782 12.9181 10.7317C12.9225 10.7259 12.928 10.7213 12.9319 10.7151C12.9493 10.6873 12.9657 10.6591 12.9826 10.6311C12.9843 10.6282 12.9862 10.6253 12.9879 10.6224C13.0065 10.5917 13.0253 10.5613 13.0434 10.5304C13.0405 10.5454 13.0345 10.5591 13.0345 10.5753V10.8111C13.0345 10.9446 13.1426 11.0525 13.2759 11.0525C13.4091 11.0525 13.5172 10.9446 13.5172 10.8111V10.5753C13.5172 10.4418 13.4091 10.3339 13.2759 10.3339C13.2148 10.3339 13.1607 10.3586 13.1182 10.3957C13.2203 10.2125 13.314 10.024 13.3997 9.83114C13.4687 9.78866 13.5172 9.71576 13.5172 9.62886V9.54945C13.6012 9.33583 13.6746 9.11714 13.7376 8.89362C13.7381 8.89145 13.7398 8.89 13.7403 8.88759ZM12.5691 10.382C12.0265 11.2722 11.2768 12.0224 10.3873 12.5657C10.3798 12.5703 10.3721 12.5749 10.3646 12.5795C9.93976 12.8366 9.48283 13.0458 9.002 13.2013L8.32879 10.5084C9.33124 10.1273 10.1276 9.331 10.5087 8.32855L13.2015 9.00176C13.0451 9.48476 12.8351 9.94386 12.5761 10.3706C12.5737 10.3742 12.5715 10.3781 12.5691 10.382ZM3.63324 12.578C3.62721 12.5744 3.62117 12.5708 3.61514 12.5672C2.72517 12.0241 1.97472 11.2734 1.43186 10.3832C1.42897 10.3786 1.42607 10.3738 1.42341 10.3692C1.1649 9.9429 0.954897 9.48428 0.798724 9.00176L3.49155 8.32855C3.87245 9.331 4.669 10.1273 5.67145 10.5084L4.99824 13.2013C4.51645 13.0453 4.05879 12.8358 3.63324 12.578ZM1.4309 3.61803C1.97352 2.72783 2.72324 1.97762 3.61272 1.43428C3.62021 1.42969 3.62793 1.4251 3.63541 1.42052C4.06024 1.16345 4.51717 0.954172 4.998 0.798724L5.67121 3.49155C4.66876 3.87269 3.87245 4.669 3.49131 5.67145L0.798483 4.99824C0.954897 4.51524 1.1649 4.05614 1.4239 3.62938C1.42631 3.62576 1.42848 3.6219 1.4309 3.61803ZM3.34914 6.13321C3.283 6.412 3.24414 6.70117 3.24414 7C3.24414 7.29883 3.283 7.588 3.34914 7.86679L0.667655 8.5371C0.54769 8.04397 0.482759 7.52959 0.482759 7C0.482759 6.47041 0.54769 5.95603 0.667655 5.4629L3.34914 6.13321ZM3.7269 7C3.7269 5.19521 5.19521 3.7269 7 3.7269C8.80479 3.7269 10.2731 5.19521 10.2731 7C10.2731 8.80479 8.80479 10.2731 7 10.2731C5.19521 10.2731 3.7269 8.80479 3.7269 7ZM10.3668 1.42197C10.3728 1.42559 10.3788 1.42921 10.3849 1.43283C11.2739 1.97545 12.0233 2.72469 12.566 3.61345C12.5703 3.62069 12.5747 3.62769 12.5788 3.63469C12.8361 4.05976 13.0453 4.51693 13.201 4.998L10.5082 5.67121C10.1273 4.66876 9.33076 3.87245 8.32831 3.49131L9.00152 0.798483C9.48355 0.954655 9.94121 1.16417 10.3668 1.42197ZM13.5172 7C13.5172 7.52959 13.4523 8.04397 13.3323 8.5371L10.6509 7.86679C10.717 7.588 10.7559 7.29883 10.7559 7C10.7559 6.70117 10.717 6.412 10.6509 6.13321L13.3323 5.4629C13.4523 5.95603 13.5172 6.47041 13.5172 7ZM8.5371 0.667655L7.86679 3.34938C7.588 3.283 7.29883 3.24414 7 3.24414C6.70117 3.24414 6.412 3.283 6.13321 3.34914L5.4629 0.667414C5.95603 0.547931 6.47041 0.482759 7 0.482759C7.52959 0.482759 8.04397 0.547931 8.5371 0.667655ZM5.4629 13.3323L6.13321 10.6506C6.412 10.7168 6.70117 10.7556 7 10.7556C7.29883 10.7556 7.588 10.7168 7.86679 10.6506L8.5371 13.3323C8.04397 13.4521 7.52959 13.5172 7 13.5172C6.47041 13.5172 5.95603 13.4521 5.4629 13.3323Z" fill="#95B19E"/>
<path d="M0.955369 1.36115C1.02585 1.36115 1.09609 1.33025 1.14365 1.27112C1.18202 1.22332 1.22547 1.17988 1.27254 1.14246C1.37682 1.05919 1.39396 0.907358 1.31092 0.803323C1.22765 0.698806 1.07582 0.681668 0.971542 0.764703C0.896714 0.824565 0.827921 0.892875 0.767335 0.968427C0.683817 1.07222 0.700231 1.22429 0.804266 1.30781C0.84868 1.34353 0.902024 1.36115 0.955369 1.36115Z" fill="#95B19E"/>
<path d="M0.724144 2.48714C0.857385 2.48714 0.965523 2.37924 0.965523 2.24576V2.00969C0.965523 1.87621 0.857385 1.76831 0.724144 1.76831C0.590902 1.76831 0.482764 1.87621 0.482764 2.00969V2.24576C0.482764 2.379 0.590902 2.48714 0.724144 2.48714Z" fill="#95B19E"/>
<path d="M2.01286 0.965523H2.24869C2.38193 0.965523 2.49007 0.857626 2.49007 0.724144C2.49007 0.590661 2.38193 0.482764 2.24869 0.482764H2.01286C1.87962 0.482764 1.77149 0.590661 1.77149 0.724144C1.77149 0.857626 1.87962 0.965523 2.01286 0.965523Z" fill="#95B19E"/>
<path d="M13.0345 2.01286V2.24893C13.0345 2.38242 13.1426 2.49031 13.2759 2.49031C13.4091 2.49031 13.5172 2.38242 13.5172 2.24893V2.01286C13.5172 1.87938 13.4091 1.77149 13.2759 1.77149C13.1426 1.77149 13.0345 1.87938 13.0345 2.01286Z" fill="#95B19E"/>
<path d="M12.8578 1.27232C12.9056 1.33218 12.9758 1.36332 13.0468 1.36332C13.0996 1.36332 13.1525 1.34618 13.1971 1.3107C13.3014 1.22742 13.3186 1.07559 13.2355 0.97156C13.1754 0.896249 13.1069 0.827456 13.0316 0.76687C12.9278 0.683836 12.7757 0.700249 12.6922 0.804042C12.6087 0.908077 12.6253 1.06015 12.7293 1.14342C12.7767 1.1818 12.8199 1.22501 12.8578 1.27232Z" fill="#95B19E"/>
<path d="M11.7542 0.965523H11.99C12.1233 0.965523 12.2314 0.857626 12.2314 0.724144C12.2314 0.590661 12.1233 0.482764 11.99 0.482764H11.7542C11.6209 0.482764 11.5128 0.590661 11.5128 0.724144C11.5128 0.857626 11.6209 0.965523 11.7542 0.965523Z" fill="#95B19E"/>
<path d="M12.8566 12.7289C12.8182 12.7767 12.7747 12.8201 12.7277 12.8575C12.6234 12.9408 12.6063 13.0926 12.6893 13.1967C12.7371 13.2565 12.8073 13.2877 12.8783 13.2877C12.9312 13.2877 12.984 13.2705 13.0287 13.2351C13.1037 13.1752 13.1725 13.1069 13.2331 13.0313C13.3166 12.9273 13.3002 12.7752 13.1962 12.692C13.0922 12.6089 12.9401 12.6256 12.8566 12.7289Z" fill="#95B19E"/>
<path d="M11.9872 13.0345H11.7513C11.6181 13.0345 11.51 13.1424 11.51 13.2759C11.51 13.4093 11.6181 13.5172 11.7513 13.5172H11.9872C12.1204 13.5172 12.2285 13.4093 12.2285 13.2759C12.2285 13.1424 12.1204 13.0345 11.9872 13.0345Z" fill="#95B19E"/>
<path d="M13.2759 11.5128C13.1426 11.5128 13.0345 11.6207 13.0345 11.7542V11.9903C13.0345 12.1237 13.1426 12.2316 13.2759 12.2316C13.4091 12.2316 13.5172 12.1237 13.5172 11.9903V11.7542C13.5172 11.6209 13.4091 11.5128 13.2759 11.5128Z" fill="#95B19E"/>
<path d="M2.2458 13.0345H2.00997C1.87673 13.0345 1.76859 13.1424 1.76859 13.2759C1.76859 13.4093 1.87673 13.5172 2.00997 13.5172H2.2458C2.37904 13.5172 2.48718 13.4093 2.48718 13.2759C2.48718 13.1424 2.37904 13.0345 2.2458 13.0345Z" fill="#95B19E"/>
<path d="M0.965523 11.9871V11.7511C0.965523 11.6176 0.857385 11.5097 0.724144 11.5097C0.590902 11.5097 0.482764 11.6176 0.482764 11.7511V11.9871C0.482764 12.1206 0.590902 12.2285 0.724144 12.2285C0.857385 12.2285 0.965523 12.1206 0.965523 11.9871Z" fill="#95B19E"/>
<path d="M1.14224 12.7277C1.05897 12.6232 0.90714 12.6065 0.803105 12.6893C0.698829 12.7726 0.681692 12.9244 0.764726 13.0284C0.82483 13.1037 0.893381 13.1725 0.968692 13.2331C1.01335 13.2686 1.06669 13.2862 1.11955 13.2862C1.19004 13.2862 1.26028 13.2553 1.30783 13.196C1.39135 13.0919 1.37469 12.9398 1.27066 12.8566C1.22335 12.8182 1.18014 12.775 1.14224 12.7277Z" fill="#95B19E"/>
</svg>
