<svg width="80" height="56" viewBox="0 0 80 56" fill="none" xmlns="http://www.w3.org/2000/svg">
<path d="M50.6099 20L37.2146 20.0076C36.4467 20.0063 35.8218 20.6312 35.8231 21.4004V22.0392C35.5385 21.9165 35.1855 21.8305 34.7352 21.8305C34.1722 21.8305 33.7054 21.957 33.6536 21.9734C33.5448 22.0038 33.4461 22.0569 33.3614 22.1316L28.2557 26.6047C28.0887 26.7527 27.9951 26.9665 28.0002 27.1891L28.0445 34.5528C28.0546 34.945 28.5049 35.265 28.8984 35.2827C28.9186 35.2827 30.8225 35.3624 32.5049 35.3624C33.5309 35.3624 34.2545 35.3359 34.7162 35.2777C36.0622 35.1082 36.6504 34.7109 36.8946 34.4579C37.1476 34.2732 37.3727 34.0911 37.608 33.9089C37.412 34.6275 37.7396 35.4105 38.4278 35.7584C38.6504 35.8722 38.9009 35.933 39.1488 35.933C39.5903 35.933 39.9951 35.7495 40.2911 35.4459C40.4366 35.6433 40.6213 35.8153 40.8541 35.9355C41.078 36.0455 41.3272 36.1063 41.5764 36.1063C42.1811 36.1063 42.7276 35.7685 43.0008 35.2296L44.0597 33.1448C44.2532 32.7628 44.2937 32.3289 44.1596 31.9241C44.1166 31.7925 44.0483 31.6698 43.9724 31.556L50.5998 31.5598C51.3677 31.5598 51.9939 30.9349 51.9951 30.1682L52.0002 21.4092C52.0015 20.6388 51.3778 20 50.6099 20ZM40.7415 32.5136L39.6852 34.6009C39.5423 34.8893 39.1703 35.012 38.8806 34.8665C38.5859 34.716 38.4683 34.3542 38.6163 34.0607L39.4853 32.3491C39.4853 32.3491 39.77 31.6546 40.2241 31.6471C40.3127 31.6496 40.3987 31.6686 40.4796 31.7103C40.6213 31.7837 40.7276 31.9039 40.7769 32.0569C40.8275 32.21 40.8174 32.3707 40.7415 32.5136ZM39.0767 30.6781L38.1216 31.5534H38.1305C37.5321 32.0721 36.8199 32.6477 35.9433 33.2954C35.8775 33.3435 35.8724 33.3384 35.8256 33.4042C35.8231 33.4067 35.5334 33.6648 34.534 33.7887C34.2608 33.8229 33.689 33.8178 32.5062 33.8178C31.4777 33.8178 30.1975 33.833 29.498 33.809L29.5094 27.5016L34.2077 23.3839C34.3342 23.3599 34.5264 23.3321 34.7352 23.3321C35.0413 23.3321 35.2526 23.3865 35.3664 23.4991V28.7059C35.3664 28.9703 35.5056 29.2132 35.7333 29.3498C35.7598 29.365 35.7902 29.3624 35.818 29.3751V29.4307L35.8876 29.3953C36.0812 29.4598 36.2899 29.4687 36.4746 29.3662C37.6422 28.7337 39.8547 27.728 40.8187 27.728C40.8617 27.728 40.8984 27.728 40.9237 27.7331C40.9275 27.7419 40.9313 27.747 40.9363 27.7546C40.9566 27.8545 41.0527 28.7223 39.0767 30.6781ZM43.1665 32.6882L42.1103 34.7755C41.966 35.0639 41.5929 35.1853 41.3044 35.0398C41.0109 34.8918 40.8946 34.5288 41.0426 34.2353L42.1001 32.148C42.2026 31.9456 42.4063 31.8178 42.634 31.8178C42.7288 31.8178 42.8199 31.8419 42.906 31.8849C43.0502 31.9583 43.1552 32.081 43.2032 32.2302C43.2538 32.3846 43.2424 32.5452 43.1665 32.6882ZM51.0691 30.1645C51.0679 30.4238 50.8604 30.6287 50.6049 30.6287L41.1476 30.6262C41.9205 29.6724 42.3645 28.8172 42.4379 28.0759C42.4923 27.4889 42.319 27.1145 42.1912 26.9285C42.0331 26.63 41.6612 26.2239 40.8187 26.2239C39.7168 26.2239 37.9989 26.945 36.8667 27.4839V25.4054L51.0704 25.4016L51.0691 30.1645ZM51.0704 22.649L36.7504 22.6426V21.3978C36.7504 21.141 36.9578 20.9336 37.2134 20.9336L50.6099 20.9235C50.8629 20.9235 51.0742 21.1486 51.0742 21.4042L51.0704 22.649Z" fill="#95B19E"/>
<path d="M50.0154 29.7685L50.0053 28.5098L46.338 28.5073L46.3494 29.7685H50.0154Z" fill="#95B19E"/>
</svg>
