<svg width="80" height="56" viewBox="0 0 80 56" fill="none" xmlns="http://www.w3.org/2000/svg">
<path d="M50.2579 24.935L49.0875 24.7365C48.9833 24.4465 48.8656 24.1619 48.7354 23.8853L49.4246 22.921C50.0243 22.0786 49.928 20.9407 49.1979 20.2178L47.7915 18.8112C47.394 18.4137 46.867 18.1947 46.3078 18.1947C45.8674 18.1947 45.4463 18.3304 45.0929 18.5847L44.125 19.2741C43.8256 19.1326 43.5218 19.0075 43.2161 18.8995L43.0225 17.7527C42.8522 16.737 41.981 16 40.9509 16H38.9638C37.9338 16 37.0626 16.737 36.8927 17.7507L36.6893 18.9423C36.402 19.0472 36.1187 19.1664 35.8413 19.2996L34.891 18.6151C34.5347 18.3586 34.1119 18.2231 33.6682 18.2231C33.1035 18.2231 32.5764 18.4424 32.1832 18.8409L30.7735 20.246C30.0455 20.9741 29.9501 22.111 30.5468 22.9492L31.2472 23.9332C31.1181 24.211 31.002 24.4968 30.8995 24.7885L29.7525 24.9821C28.737 25.1525 28 26.0237 28 27.0537V29.0408C28 30.0707 28.737 30.942 29.7507 31.1121L30.9423 31.3153C31.0472 31.6028 31.1666 31.8862 31.2996 32.1635L30.6177 33.1119C30.018 33.9544 30.1143 35.0924 30.8444 35.8151L32.2508 37.2217C32.6483 37.6193 33.1753 37.8383 33.7345 37.8383C34.1749 37.8383 34.596 37.7026 34.9492 37.4484L35.9332 36.748C36.1918 36.8682 36.4598 36.9782 36.735 37.0773L36.9301 38.2475C37.1005 39.263 37.9717 40 39.0017 40H40.9933C42.0233 40 42.8947 39.263 43.0648 38.2488L43.2633 37.0782C43.5533 36.974 43.8379 36.8563 44.1146 36.7261L45.0757 37.4131C45.432 37.6696 45.8548 37.8053 46.2985 37.8053C46.8575 37.8053 47.3845 37.5863 47.782 37.1888L49.1884 35.7822C49.9166 35.0541 50.0118 33.9172 49.4151 33.079L48.7252 32.1102C48.8588 31.8271 48.9769 31.5427 49.0786 31.26L50.2473 31.0652C51.2628 30.8947 51.9998 30.0235 51.9998 28.9935V27.0105C52.0114 25.9794 51.2797 25.1071 50.2579 24.935ZM50.5936 28.9935C50.5936 29.3339 50.35 29.6219 50.0153 29.6782L48.4651 29.9365C48.1791 29.9841 47.9484 30.1859 47.8625 30.4633C47.7249 30.9095 47.5357 31.3657 47.3008 31.8183C47.1678 32.0735 47.1891 32.3777 47.3561 32.6117L48.2696 33.8945C48.4666 34.1714 48.4349 34.5471 48.1942 34.7879L46.7877 36.1943C46.6539 36.3282 46.4847 36.399 46.2985 36.399C46.1516 36.399 46.013 36.3551 45.8954 36.2705L44.6181 35.3575C44.3832 35.1889 44.0778 35.1677 43.8212 35.3019C43.3917 35.5267 42.9352 35.7159 42.4644 35.8636C42.1898 35.9497 41.9893 36.1797 41.9415 36.4628L41.6782 38.0146C41.6219 38.3502 41.3339 38.5938 40.9933 38.5938H39.0017C38.6611 38.5938 38.3733 38.3502 38.3171 38.0155L38.0587 36.4653C38.0115 36.1812 37.8115 35.9508 37.5369 35.864C37.0729 35.7175 36.631 35.5359 36.2233 35.324C36.1121 35.2664 35.9918 35.238 35.8721 35.238C35.7172 35.238 35.563 35.2856 35.431 35.3795L34.1307 36.3049C34.0135 36.3893 33.8802 36.432 33.7345 36.432C33.5483 36.432 33.3791 36.3613 33.2452 36.2273L31.8362 34.8185C31.5958 34.5804 31.5652 34.2058 31.7614 33.9302L32.6694 32.6672C32.8402 32.4301 32.8611 32.1224 32.7234 31.8637C32.4925 31.4307 32.3011 30.9766 32.1545 30.5139C32.0677 30.241 31.8386 30.0416 31.5566 29.9935L29.9852 29.7256C29.6498 29.6692 29.4062 29.3812 29.4062 29.0408V27.0537C29.4062 26.7133 29.6498 26.4253 29.9858 26.3689L31.5169 26.1105C31.8031 26.0624 32.0336 25.86 32.1188 25.5817C32.2632 25.1089 32.4491 24.6517 32.6712 24.2233C32.8034 23.9686 32.7822 23.6652 32.6157 23.431L31.6925 22.1339C31.4953 21.857 31.527 21.4813 31.767 21.2412L33.1782 19.8348L33.1833 19.8295C33.3102 19.7004 33.4824 19.6293 33.6682 19.6293C33.8151 19.6293 33.9539 19.6733 34.0692 19.7564L35.3378 20.6696C35.5753 20.8406 35.8832 20.8611 36.1411 20.7234C36.5741 20.4925 37.0282 20.3011 37.4904 20.1547C37.7632 20.0681 37.9626 19.8394 38.0111 19.5566L38.2792 17.9852C38.3354 17.6498 38.6234 17.4062 38.964 17.4062H40.951C41.2914 17.4062 41.5795 17.6498 41.6359 17.9858L41.8942 19.5175C41.9426 19.8038 42.1453 20.0342 42.4238 20.1191C42.8986 20.2634 43.3721 20.4583 43.8315 20.6985C44.0867 20.8318 44.3909 20.8109 44.626 20.6437L45.9117 19.728C46.0287 19.6436 46.162 19.601 46.308 19.601C46.494 19.601 46.6632 19.6716 46.7972 19.8057L48.2061 21.2145C48.4465 21.4525 48.4772 21.8271 48.2798 22.1042L47.366 23.3828C47.1982 23.6179 47.1774 23.923 47.3112 24.1786C47.5363 24.6082 47.7252 25.0646 47.8732 25.5356C47.9594 25.8102 48.1892 26.0106 48.4723 26.0583L50.0228 26.3215L50.0241 26.3217C50.3586 26.3779 50.5983 26.6617 50.5936 26.9966V28.9935Z" fill="#95B19E"/>
<path d="M40 23.3337C37.427 23.3337 35.3337 25.427 35.3337 28C35.3337 30.573 37.427 32.6663 40 32.6663C42.573 32.6663 44.6663 30.573 44.6663 28C44.6663 25.427 42.573 23.3337 40 23.3337ZM40 31.26C38.2025 31.26 36.74 29.7975 36.74 28C36.74 26.2025 38.2025 24.74 40 24.74C41.7975 24.74 43.26 26.2025 43.26 28C43.26 29.7975 41.7975 31.26 40 31.26Z" fill="#95B19E"/>
</svg>
