<svg width="14" height="17" viewBox="0 0 14 17" fill="none" xmlns="http://www.w3.org/2000/svg">
<path d="M13.6455 3.6263L11.5461 1.35009C11.2599 1.0398 10.9464 0.891907 10.5783 0.891907C10.2647 0.891907 9.98062 1.02715 9.73312 1.29112L8.05657 3.07957L1.36307 10.3365C1.24036 10.4992 1.17755 10.6336 1.15864 10.7061L0.0407087 15.007C0.0174702 15.0968 0 15.1842 0 15.2731C0 15.6427 0.327149 16.027 0.749737 16.027C0.845133 16.027 0.913754 16.0144 0.967851 15.9974L4.90758 14.7557C5.04108 14.7138 5.15273 14.6668 5.23473 14.5785L11.9689 7.2919L13.6182 5.5034C13.8363 5.26692 13.959 4.97118 14 4.61675C14 4.21754 13.8773 3.87763 13.6455 3.6263ZM4.32127 13.2778L1.84031 14.0317L2.56268 11.3417L8.58816 4.80873L10.3738 6.71541L4.32127 13.2778ZM11.437 5.56233L9.6514 3.65565L10.6056 2.62111L12.3641 4.52779L11.437 5.56233Z" fill="#E4E8F0"/>
</svg>
