<svg width="25" height="24" viewBox="0 0 25 24" fill="none" xmlns="http://www.w3.org/2000/svg">
<g opacity="0.65">
<path fill-rule="evenodd" clip-rule="evenodd" d="M11.4776 1.02545L22.2877 2.88642C22.2877 2.88642 23.5078 3.03053 23.8104 3.60166C24.113 4.1728 23.9824 4.60716 23.9824 4.60716L21.7247 19.433C21.7247 19.433 21.4717 21.153 20.894 21.4365C20.3162 21.7201 18.5878 21.3848 18.5878 21.3848L7.89375 19.5997C7.89375 19.5997 6.80278 19.4196 6.56299 18.9898C6.32321 18.56 6.56299 17.1795 6.56299 17.1795L8.8552 2.60709C8.8552 2.60709 8.97596 1.82538 9.51203 1.34565C10.0481 0.865921 11.4776 1.02545 11.4776 1.02545Z" stroke="#8097B1" stroke-width="1.05"/>
<path fill-rule="evenodd" clip-rule="evenodd" d="M9.3446 14.9837L19.3041 16.8224L18.0793 10.0713L15.0282 13.9066L12.7714 11.5855L9.3446 14.9837Z" stroke="#8097B1" stroke-width="1.05"/>
<path d="M7.11632 3.75928L2.9321 4.15369C2.9321 4.15369 2.09673 4.18624 1.44327 4.71342C0.789819 5.24061 1.05194 6.45996 1.05194 6.45996L3.32275 21.1186C3.32275 21.1186 3.46803 22.4367 4.04754 22.7719C4.62705 23.107 5.94341 22.8577 5.94341 22.8577L11.4692 21.8916" stroke="#8097B1" stroke-width="1.05"/>
<path fill-rule="evenodd" clip-rule="evenodd" d="M14.1857 6.75855C14.1857 5.92518 13.6809 5.39209 12.7904 5.39209C11.8999 5.39209 11.395 6.20677 11.395 6.75855C11.395 7.31033 11.9538 8.12501 12.7904 8.12501C13.6269 8.12501 14.1857 7.59192 14.1857 6.75855Z" stroke="#8097B1" stroke-width="1.05"/>
</g>
</svg>
